<?xml version="1.0" encoding="UTF-8" standalone="no"?>
<!-- Created with Inkscape (http://www.inkscape.org/) -->

<svg
   xmlns:dc="http://purl.org/dc/elements/1.1/"
   xmlns:cc="http://creativecommons.org/ns#"
   xmlns:rdf="http://www.w3.org/1999/02/22-rdf-syntax-ns#"
   xmlns:svg="http://www.w3.org/2000/svg"
   xmlns="http://www.w3.org/2000/svg"
   xmlns:sodipodi="http://sodipodi.sourceforge.net/DTD/sodipodi-0.dtd"
   xmlns:inkscape="http://www.inkscape.org/namespaces/inkscape"
   width="700mm"
   height="700mm"
   viewBox="0 0 2480.315 2480.3149"
   id="svg2"
   version="1.1"
   inkscape:version="0.91 r13725"
   inkscape:export-filename="C:\Users\1513290957\Documents\GitHub\abertoothWebsite\abertooth\main\imgs\newAlbum.png"
   inkscape:export-xdpi="96"
   inkscape:export-ydpi="96"
   sodipodi:docname="newAlbum.svg">
  <defs
     id="defs4">
    <filter
       style="color-interpolation-filters:sRGB;"
       x="-0.15"
       width="1.3"
       y="-0.15"
       height="1.3"
       inkscape:label="Ink Blot"
       id="filter4489">
      <feGaussianBlur
         in="SourceGraphic"
         stdDeviation="3.29 1.83"
         result="blur1"
         id="feGaussianBlur4491" />
      <feTurbulence
         type="fractalNoise"
         baseFrequency="0.1459"
         numOctaves="3"
         seed="62"
         result="turbulence"
         id="feTurbulence4493" />
      <feDisplacementMap
         in="blur1"
         in2="turbulence"
         xChannelSelector="R"
         yChannelSelector="G"
         scale="20.31"
         result="map"
         id="feDisplacementMap4495" />
      <feGaussianBlur
         in="map"
         stdDeviation="14.6926"
         result="blur2"
         id="feGaussianBlur4497" />
      <feComposite
         in="blur2"
         in2="map"
         operator="over"
         result="fbSourceGraphic"
         id="feComposite4499" />
      <feColorMatrix
         result="fbSourceGraphicAlpha"
         in="fbSourceGraphic"
         values="0 0 0 -1 0 0 0 0 -1 0 0 0 0 -1 0 0 0 0 1 0"
         id="feColorMatrix4501" />
      <feGaussianBlur
         id="feGaussianBlur4503"
         in="fbSourceGraphic"
         stdDeviation="3.29 1.83"
         result="blur1" />
      <feTurbulence
         id="feTurbulence4505"
         type="fractalNoise"
         baseFrequency="0.1459"
         numOctaves="3"
         seed="62"
         result="turbulence" />
      <feDisplacementMap
         id="feDisplacementMap4507"
         in2="turbulence"
         in="blur1"
         xChannelSelector="R"
         yChannelSelector="G"
         scale="20.31"
         result="map" />
      <feGaussianBlur
         id="feGaussianBlur4509"
         in="map"
         stdDeviation="14.69"
         result="blur2" />
      <feComposite
         id="feComposite4511"
         in2="map"
         in="blur2"
         operator="over"
         result="composite" />
    </filter>
    <filter
       style="color-interpolation-filters:sRGB;"
       x="-0.15"
       width="1.3"
       y="-0.15"
       height="1.3"
       inkscape:label="Ink Blot"
       id="filter4513">
      <feGaussianBlur
         in="SourceGraphic"
         stdDeviation="3.29 1.83"
         result="blur1"
         id="feGaussianBlur4515" />
      <feTurbulence
         type="fractalNoise"
         baseFrequency="0.1459"
         numOctaves="3"
         seed="62"
         result="turbulence"
         id="feTurbulence4517" />
      <feDisplacementMap
         in="blur1"
         in2="turbulence"
         xChannelSelector="R"
         yChannelSelector="G"
         scale="20.31"
         result="map"
         id="feDisplacementMap4519" />
      <feGaussianBlur
         in="map"
         stdDeviation="14.69"
         result="blur2"
         id="feGaussianBlur4521" />
      <feComposite
         in="blur2"
         in2="map"
         operator="over"
         result="composite"
         id="feComposite4523" />
    </filter>
    <filter
       style="color-interpolation-filters:sRGB;"
       x="-0.15"
       width="1.3"
       y="-0.15"
       height="1.3"
       inkscape:label="Ink Blot"
       id="filter4525">
      <feGaussianBlur
         in="SourceGraphic"
         stdDeviation="3.29 1.83"
         result="blur1"
         id="feGaussianBlur4527" />
      <feTurbulence
         type="fractalNoise"
         baseFrequency="0.1459"
         numOctaves="3"
         seed="62"
         result="turbulence"
         id="feTurbulence4529" />
      <feDisplacementMap
         in="blur1"
         in2="turbulence"
         xChannelSelector="R"
         yChannelSelector="G"
         scale="20.31"
         result="map"
         id="feDisplacementMap4531" />
      <feGaussianBlur
         in="map"
         stdDeviation="14.69"
         result="blur2"
         id="feGaussianBlur4533" />
      <feComposite
         in="blur2"
         in2="map"
         operator="over"
         result="composite"
         id="feComposite4535" />
    </filter>
    <filter
       style="color-interpolation-filters:sRGB;"
       x="-0.15"
       width="1.3"
       y="-0.15"
       height="1.3"
       inkscape:label="Ink Blot"
       id="filter4537">
      <feGaussianBlur
         in="SourceGraphic"
         stdDeviation="3.29 1.83"
         result="blur1"
         id="feGaussianBlur4539" />
      <feTurbulence
         type="fractalNoise"
         baseFrequency="0.1459"
         numOctaves="3"
         seed="62"
         result="turbulence"
         id="feTurbulence4541" />
      <feDisplacementMap
         in="blur1"
         in2="turbulence"
         xChannelSelector="R"
         yChannelSelector="G"
         scale="20.31"
         result="map"
         id="feDisplacementMap4543" />
      <feGaussianBlur
         in="map"
         stdDeviation="14.69"
         result="blur2"
         id="feGaussianBlur4545" />
      <feComposite
         in="blur2"
         in2="map"
         operator="over"
         result="composite"
         id="feComposite4547" />
    </filter>
    <filter
       style="color-interpolation-filters:sRGB;"
       x="-0.15"
       width="1.3"
       y="-0.15"
       height="1.3"
       inkscape:label="Ink Blot"
       id="filter4549">
      <feGaussianBlur
         in="SourceGraphic"
         stdDeviation="3.29 1.83"
         result="blur1"
         id="feGaussianBlur4551" />
      <feTurbulence
         type="fractalNoise"
         baseFrequency="0.1459"
         numOctaves="3"
         seed="62"
         result="turbulence"
         id="feTurbulence4553" />
      <feDisplacementMap
         in="blur1"
         in2="turbulence"
         xChannelSelector="R"
         yChannelSelector="G"
         scale="20.31"
         result="map"
         id="feDisplacementMap4555" />
      <feGaussianBlur
         in="map"
         stdDeviation="14.69"
         result="blur2"
         id="feGaussianBlur4557" />
      <feComposite
         in="blur2"
         in2="map"
         operator="over"
         result="composite"
         id="feComposite4559" />
    </filter>
    <filter
       style="color-interpolation-filters:sRGB;"
       x="-0.15"
       width="1.3"
       y="-0.15"
       height="1.3"
       inkscape:label="Ink Blot"
       id="filter4561">
      <feGaussianBlur
         in="SourceGraphic"
         stdDeviation="3.29 1.83"
         result="blur1"
         id="feGaussianBlur4563" />
      <feTurbulence
         type="fractalNoise"
         baseFrequency="0.1459"
         numOctaves="3"
         seed="62"
         result="turbulence"
         id="feTurbulence4565" />
      <feDisplacementMap
         in="blur1"
         in2="turbulence"
         xChannelSelector="R"
         yChannelSelector="G"
         scale="20.31"
         result="map"
         id="feDisplacementMap4567" />
      <feGaussianBlur
         in="map"
         stdDeviation="14.69"
         result="blur2"
         id="feGaussianBlur4569" />
      <feComposite
         in="blur2"
         in2="map"
         operator="over"
         result="composite"
         id="feComposite4571" />
    </filter>
    <filter
       style="color-interpolation-filters:sRGB;"
       x="-0.15"
       width="1.3"
       y="-0.15"
       height="1.3"
       inkscape:label="Ink Blot"
       id="filter4573">
      <feGaussianBlur
         in="SourceGraphic"
         stdDeviation="3.29 1.83"
         result="blur1"
         id="feGaussianBlur4575" />
      <feTurbulence
         type="fractalNoise"
         baseFrequency="0.1459"
         numOctaves="3"
         seed="62"
         result="turbulence"
         id="feTurbulence4577" />
      <feDisplacementMap
         in="blur1"
         in2="turbulence"
         xChannelSelector="R"
         yChannelSelector="G"
         scale="20.31"
         result="map"
         id="feDisplacementMap4579" />
      <feGaussianBlur
         in="map"
         stdDeviation="14.69"
         result="blur2"
         id="feGaussianBlur4581" />
      <feComposite
         in="blur2"
         in2="map"
         operator="over"
         result="composite"
         id="feComposite4583" />
    </filter>
  </defs>
  <sodipodi:namedview
     id="base"
     pagecolor="#ffffff"
     bordercolor="#666666"
     borderopacity="1.0"
     inkscape:pageopacity="0.0"
     inkscape:pageshadow="2"
     inkscape:zoom="0.24748737"
     inkscape:cx="1533.5898"
     inkscape:cy="1091.4286"
     inkscape:document-units="px"
     inkscape:current-layer="layer1"
     showgrid="false"
     inkscape:window-width="1418"
     inkscape:window-height="532"
     inkscape:window-x="69"
     inkscape:window-y="437"
     inkscape:window-maximized="0" />
  <metadata
     id="metadata7">
    <rdf:RDF>
      <cc:Work
         rdf:about="">
        <dc:format>image/svg+xml</dc:format>
        <dc:type
           rdf:resource="http://purl.org/dc/dcmitype/StillImage" />
        <dc:title></dc:title>
      </cc:Work>
    </rdf:RDF>
  </metadata>
  <g
     inkscape:label="Layer 1"
     inkscape:groupmode="layer"
     id="layer1"
     transform="translate(0,1427.9528)">
    <path
       style="opacity:1;fill:#ed1c63;fill-opacity:1;stroke:none;stroke-width:21.66600037;stroke-miterlimit:4;stroke-dasharray:43.332, 21.66600000000000000;stroke-dashoffset:0;stroke-opacity:1;filter:url(#filter4513)"
       id="path4242"
       d="m 690.93475,-43.8025 c 0.75118,-16.9139 1.36596,-33.8344 2.25353,-50.7416 5.0652,-96.4873 0.89489,-34.0431 8.65628,21.8278 0.73548,5.2944 5.41222,9.4531 6.38789,14.7085 12.98362,69.9366 2.9585,97.9082 17.46149,9.3117 3.61124,-17.823 -3.66105,-64.4509 10.83372,-53.469 19.53158,14.798 4.62448,49.5011 13.8775,72.1914 1.88781,4.6292 9.92714,-1.9472 14.91374,-1.5897 5.69331,0.4082 14.61915,9.1766 16.68415,3.8553 11.21059,-28.8887 7.9056,-61.8055 17.26736,-91.3451 3.07233,-9.6943 12.7978,-15.8079 19.19671,-23.7119 7.00423,25.1699 4.52194,55.2455 21.01269,75.5096 6.69851,8.2313 16.36559,-14.4333 20.87122,-24.0417 9.72102,-20.7306 -0.45763,-73.204 21.06121,-65.3814 26.29274,9.5581 3.74997,59.7517 21.93475,81.0115 26.93782,-39.9774 13.11341,-40.7077 41.16767,-5.4821 48.60852,-3.4658 2.35556,-120.6357 37.23875,-106.5448 33.32279,13.4606 -12.11155,129.7754 15.44433,106.7044 229.14656,-191.8513 -102.716,-160.4443 29.39896,-62.2212 14.4217,10.7221 9.9575,-34.5345 14.9362,-51.8018 2.4718,25.0182 -4.1651,52.7406 7.4153,75.0546 5.7353,11.0513 9.9992,-22.8836 13.4518,-34.8462 7.3691,-25.5332 -4.8882,-89.1762 18.9553,-77.44 25.7877,12.6932 -2.918,57.5339 -1.118,86.2199 0.1788,2.8485 4.5671,3.4241 6.8507,5.1362 -0.014,13.8454 -0.028,27.6909 -0.042,41.5364 3.6347,-10.7262 5.8545,-42.316 10.904,-32.1787 7.2712,14.5976 -2.0764,32.5559 -2.597,48.8558 -0.3547,11.1082 -1.0147,22.2716 -0.028,33.3416 0.3425,3.8422 2.6413,14.4925 3.9685,10.8706 21.2008,-57.8609 21.1489,-128.2543 13.0674,2.2114 -2.3395,32.4058 -14.9333,65.706 -7.0185,97.2173 4.7316,18.838 0.6772,-45.8355 17.4748,-55.5875 12.5351,-7.2774 -4.2335,31.1591 3.6359,43.3314 3.9202,6.0638 12.4889,-24.2302 13.348,-17.0608 4.2419,35.4018 -37.2848,98.7611 -2.5791,106.9341 33.9708,7.9999 17.389,-67.5993 26.0834,-101.399 3.9744,3.2333 7.0572,8.0959 11.9231,9.6999 53.1512,17.5217 -18.2174,-171.3168 15.4618,104.4507 0.4993,4.0883 19.3539,22.6601 27.2262,18.549 7.9499,-4.1516 11.3346,-13.9024 17.0019,-20.8536 8.4659,16.2307 11.3336,25.6191 24.3875,37.8837 3.741,3.5149 10.3517,4.1014 12.7461,8.6419 5.3653,10.1747 4.5199,22.774 9.3299,33.2227 2.2355,4.8562 7.489,7.6314 11.2336,11.4471 2.4574,12.545 4.9148,25.0901 7.3722,37.6351 3.1895,4.5596 5.9307,17.8894 9.5685,13.6788 10.2025,-11.8087 0.9209,-45.0917 16.4748,-43.8223 15.1846,1.2392 -0.1892,30.9254 4.2129,45.5107 0.9315,3.0861 6.6745,1.6698 9.6603,0.4544 4.204,-1.7113 8.5377,-12.7535 10.5055,-8.6633 5.4994,11.4309 2.3698,25.259 3.5547,37.8885 16.3918,17.9514 -9.4173,54.1263 6.3645,72.5903 4.5734,5.3506 4.0854,-20.9755 10.5843,-18.2722 7.6729,3.1916 3.4609,16.2786 4.4572,24.5288 1.4619,12.1047 -1.8524,25.2374 2.9085,36.4621 1.5919,3.7533 6.0546,-5.4615 9.0819,-8.1923 3.8294,-9.1563 7.0679,-18.5829 11.4882,-27.4691 32.4847,-65.3044 1.3201,88.9352 4.848,103.9875 5.561,23.7265 7.6689,-48.4485 16.096,-71.3145 1.1508,-3.1226 4.8327,7.1189 7.9709,6.0115 4.8742,-1.7199 6.3797,-8.1339 9.5695,-12.2009 3.6555,-12.2973 3.9105,-47.6064 10.9667,-36.892 35.6478,54.1287 -48.7638,150.6872 17.6166,-43.895 5.5036,-16.1327 3.4885,33.9184 4.6797,50.9223 5.6675,80.9024 -10.7916,100.0704 11.3177,68.4811 1.8303,19.933 -1.0267,78.7249 5.4909,59.7989 9.6521,-28.0281 0.5998,-59.4309 4.502,-88.8164 1.2028,-9.0583 -3.5357,21.5644 3.6848,27.1646 2.6509,2.0561 1.1171,-28.1379 0.5828,-33.6574 -1.4621,-11.8228 -5.4479,-47.3341 -4.3862,-35.4686 9.1357,102.1009 17.5871,91.7505 2.1449,232.0103 -5.7292,52.0373 -17.6481,103.2995 -30.2015,154.1239 -7.2565,29.3793 10.5042,-59.6309 14.2784,-89.6568 0.246,-1.957 -2.3993,3.1312 -3.599,4.6968 13.5899,-172.0557 -26.1241,336.8545 9.4293,-398.8185 0.722,-14.9393 5.2056,29.4673 8.4656,44.0645 1.5924,7.1301 6.2575,28.3614 6.0783,21.0578 -0.9739,-39.6936 -13.7153,-79.4561 -8.4768,-118.8145 3.6208,-27.2037 8.9871,54.1465 13.4806,81.2197 0.4228,-13.5334 -1.1146,-27.2716 1.2683,-40.6004 0.3497,-1.9564 4.876,3.7364 5.6494,1.9057 5.8689,-13.8922 3.1921,-75.8101 3.1917,-76.0334 0,0 28.408,299.2911 28.408,299.2911 l 0,0 c -25.4166,33.4389 19.6026,-28.5076 -1.0675,98.6961 -2.805,17.2616 3.3305,-72.6985 -13.8321,-50.6076 -3.4569,109.6026 1.6266,-64.7309 -0.3964,57.6035 -0.051,3.0838 -0.4289,12.1933 -1.1117,9.1856 -3.4352,-15.1314 -7.9756,-30.4834 -7.2421,-45.9824 8.2665,-174.6623 38.2572,-343.1536 8.3177,-163.0753 6.5162,-21.3981 3.0822,-10.5895 10.3242,-32.4188 2.4637,-7.9789 7.2564,-32.3896 7.0423,-24.0417 -2.9521,115.1178 -11.5051,230.0352 -15.2763,345.1292 -0.539,16.4472 3.9056,32.9296 2.3519,49.3121 -0.3784,3.9893 -4.0288,-6.9282 -6.0431,-10.3923 -22.7363,-39.8818 19.8476,29.2681 -11.6052,31.8739 -14.6395,1.2128 -5.6634,-28.868 -9.7649,-42.9734 -1.9758,-6.7948 -4.9272,-25.6615 -8.3999,-19.4961 -17.8081,31.6167 0.6077,141.1702 -16.8434,-33.1602 -3.518,15.7943 -7.6666,31.4612 -10.554,47.3829 -5.1914,28.6266 2.8302,110.1638 -13.6718,86.2031 -21.695,-31.5011 -0.023,-76.7989 -5.8829,-114.5965 -0.6281,-4.0517 -9.4842,1.6257 -11.0428,5.418 -7.6039,18.5022 -8.0913,39.34 -15.0579,58.0915 -2.5305,6.8114 -8.6799,11.6557 -13.0198,17.4836 -2.7795,-12.6762 -5.559,-25.3524 -8.3385,-38.0286 -3.7299,-0.4993 -10.2186,2.1379 -11.1896,-1.4978 -5.0556,-18.9289 14.4235,-62.0687 -4.8551,-58.5764 -27.3742,4.9587 -10.483,123.9719 -23.6133,25.8424 -1.8409,-13.7588 -2.984,-27.602 -4.476,-41.4029 -0.9159,-16.2211 0.2869,-32.7023 -2.7476,-48.6634 -0.6267,-3.2964 -6.6624,-9.6293 -7.7301,-6.4482 -10.1756,30.318 10.4862,92.8989 -21.4881,93.5027 -31.099,0.5872 8.4571,-62.2951 4.8367,-93.1883 -1.2163,-10.379 -7.0429,47.4056 -19.8887,24.2338 -1.8112,-6.7246 -3.0753,-13.621 -5.4336,-20.1737 -1.7044,-4.7356 -1.6648,-13.5943 -6.6974,-13.5322 -5.808,0.072 -8.3593,19.0593 -10.7081,13.747 -6.1413,-13.8897 -2.9692,-30.2573 -3.305,-45.4404 -2.2934,-103.7022 7.5308,-49.3844 -6.3301,-110.9381 -32.9143,57.9273 4.1129,4.1725 -19.9077,-29.4119 -5.7797,-8.0808 -7.0422,20.4559 -15.695,25.3378 -4.5031,2.5406 -9.2681,-13.8954 -12.1703,-9.6164 -11.4366,16.8624 -4.7972,70.739 -20.3898,57.6238 -20.2766,-17.055 -3.5904,-52.8693 -5.3856,-79.3039 -5.2844,2.8519 -11.8135,4.1129 -15.8533,8.5558 -7.7591,8.5332 -15.8039,40.4458 -18.5082,29.2339 -8.9033,-36.9137 5.5049,-76.6599 -1.9129,-113.9005 -1.6123,-8.0948 -9.6516,14.5171 -17.2327,17.781 -14.037,6.0436 -23.3561,-18.7294 -26.3419,-23.5631 -6.9969,17.7386 -8.2807,39.0007 -20.9907,53.2157 -4.571,5.1122 -10.7172,-10.4705 -11.1073,-17.3171 -2.148,-37.7034 6.7863,-75.5983 3.6697,-113.234 -0.4055,-4.8968 -9.2151,4.24 -12.3846,7.9946 -18.944,22.4408 -7.1174,32.3233 -21.3206,11.9184 -1.5644,-7.2123 -3.6417,-14.3322 -4.6932,-21.6369 -1.3795,-9.5839 -0.3071,-19.522 -2.5858,-28.9327 -0.5373,-2.2187 -5.0363,-1.9242 -5.4306,-4.1728 -1.6813,-9.5877 1.5537,-19.6674 -0.4215,-29.1989 -0.3811,-1.8391 -3.4406,1.5076 -5.1608,2.2614 -0.6835,-3.9055 -1.3669,-7.8109 -2.0503,-11.7164 -0.6808,-3.1802 -1.1233,-6.421 -2.0424,-9.5407 -0.4707,-1.5974 -2.0437,-2.8674 -2.1034,-4.5316 -0.3591,-10.0097 1.175,-20.0247 0.8633,-30.0359 -0.1171,-3.7631 1.6081,-10.7737 -2.1436,-11.0894 -3.8721,-0.3259 -2.1024,12.9432 -5.1072,10.4793 -4.9896,-4.0915 -3.2927,-12.4782 -4.9391,-18.7172 -2.3658,-12.2872 5.232,-34.7275 -7.0975,-36.8616 -11.6815,-2.0218 -8.4308,22.1988 -11.5722,33.6302 -5.1679,18.8059 -8.78796,38.0036 -13.32564,56.9715 -4.75836,19.8903 -9.02373,79.2889 -14.56214,59.6015 -32.82041,-116.6667 1.71995,-322.2121 -34.00465,-9.5338 -6.65693,-33.4512 -6.1436,-69.1749 -19.97079,-100.3535 -3.03152,-6.8357 -16.86321,2.2191 -20.70503,8.6346 -10.98699,18.347 0.23352,64.5064 -20.80801,60.6876 -23.54697,-4.2735 -0.0348,-78.4313 -21.76942,-68.4149 -34.43386,15.8688 5.46626,91.9345 -40.35898,106.3425 -41.07958,-212.5116 -0.32455,-67.5255 -37.27725,-4.4406 -7.58339,12.9462 -2.26711,-44.9495 -16.91722,-41.7112 -16.5132,3.6501 -8.31831,32.8712 -14.42974,48.6402 -3.10411,8.0093 -8.22568,29.3451 -13.03632,22.2288 -11.27509,-16.6793 -7.97182,-39.4684 -11.95773,-59.2025 -23.78861,217.2974 5.75955,0.6975 -17.42739,0.6897 -26.98627,-0.01 -0.62411,54.222 -5.43344,80.7763 -1.40023,7.7312 -3.90526,-30.8057 -5.02538,-23.029 -10.32993,71.7179 15.95128,96.4611 -5.22302,75.6116 0,0 -3.9832,-382.746 -3.9832,-382.746 z"
       inkscape:connector-curvature="0" />
    <path
       style="opacity:1;fill:#0ab5ae;fill-opacity:1;stroke:none;stroke-width:21.66600037;stroke-miterlimit:4;stroke-dasharray:43.332, 21.66600000000000000;stroke-dashoffset:0;stroke-opacity:1;filter:url(#filter4489)"
       id="path4244"
       d="m 1416.0146,482.8321 c 0.027,-1.0578 2.973,-97.8489 0.5399,-92.1153 -3.3105,25.137 -6.6209,50.274 -9.9314,75.411 -1.8235,-10.1862 1.7378,-37.9829 -5.4706,-30.5585 -23.5443,24.2496 -1.8514,117.2436 -21.021,-10.2756 -4.1903,-12.6107 -3.1002,-47.1537 -12.5708,-37.832 -64.5813,63.5653 50.5851,261.0343 -31.5724,-114.4852 -2.4621,-11.254 -17.1868,15.7205 -23.4432,25.3938 -39.542,61.1371 -3.4148,50.9847 -54.1063,54.2821 -9.5609,-4.4382 -20.6556,-20.1464 -28.6827,-13.3146 -18.6723,15.8917 -10.139,74.7659 -32.9473,65.767 -86.1211,-264.0947 19.5835,-27.0429 -63.8241,-49.9935 -79.3703,-21.8396 14.8811,-128.13 -66.9599,-7.3635 -8.6299,16.1666 -25.9408,99.4514 -65.0493,51.0634 -14.07865,-17.4191 -10.0038,-48.1273 -28.40849,-60.8906 -9.69347,-6.7222 -20.40835,12.7154 -27.77735,21.9268 -38.4411,48.0521 -12.87709,69.3908 -46.83189,1.7825 -6.43448,10.2582 -7.55602,33.7124 -19.30344,30.7745 -13.75642,-3.4402 -9.21354,-52.1342 -15.71356,-39.5317 -110.46102,214.1671 33.1193,84.4064 -23.09327,58.6731 -9.01423,-4.1266 -3.49155,19.6683 -7.23559,28.848 -0.68719,1.6849 -3.46895,1.1002 -5.20343,1.6502 -0.85929,16.7534 4.97509,65.2391 -2.57786,50.2602 -10.83359,-21.485 -3.52577,-48.1182 -8.23986,-71.7137 -0.3907,-1.9556 -4.00875,1.3122 -5.93131,0.7824 -2.86641,-0.79 -7.05446,-7.4403 -7.68157,-4.5339 -4.58357,21.2427 -3.19727,43.3504 -5.35968,64.9742 -2.06094,20.6091 -4.87224,41.1363 -7.30837,61.7045 -37.37531,-103.8641 13.18492,16.0858 -23.7793,10.2947 -17.50703,-2.7428 -10.15351,-33.9602 -15.69072,-50.7934 -5.04917,-15.3496 -5.66893,-58.1101 -16.06268,-45.7377 -17.23495,20.5159 -8.16888,52.9627 -12.25332,79.4441 0,0 -9.42438,-277.1456 -9.42438,-277.1456 l 0,0 c 4.31398,-13.9738 6.31653,-28.8838 12.94193,-41.9216 2.50267,-4.9248 10.69778,-14.6643 13.351,-9.8188 10.27279,18.7606 -2.69241,50.8615 15.38382,62.2956 38.47743,24.3391 -33.57308,-219.3019 16.33278,-135.6073 1.88092,-23.6132 -3.0794,-92.8633 5.64277,-70.8396 14.99833,37.8713 7.92269,81.1314 14.36201,121.3523 1.22398,7.6451 5.94441,28.9059 8.52553,21.6063 6.42917,-18.1822 -14.98112,-56.0954 4.23735,-57.7008 29.56507,-2.4698 -5.43538,76.4977 17.59005,87.2486 2.4601,-6.5071 6.4978,-12.6209 7.38031,-19.5214 4.49405,-35.1396 -4.46094,-73.0187 8.66304,-105.9239 6.80148,-17.0531 -4.39637,61.6576 12.15826,53.7195 20.43016,-9.7964 0.37861,-84.2631 14.36429,-66.4373 38.95772,49.6547 -8.89953,247.7069 36.94996,-13.0151 61.07617,-42.0225 -11.50778,-2.5204 46.67313,90.4595 6.45616,10.3177 17.18714,-17.9736 28.15618,-23.2479 9.131,-4.3904 19.97344,-3.4573 30.02526,-4.7274 48.2256,-6.0937 20.8952,5.8126 65.5318,-30.4603 11.2743,1.608 22.6689,7.1225 33.8229,4.824 9.1462,-1.8847 51.8806,-37.1515 68.3809,-21.643 17.1107,16.0823 11.4323,50.0533 30.7736,63.37 28.2544,19.4535 67.7495,-102.8018 63.7907,-80.7556 9.5719,-8.6827 23.4339,-37.8427 28.7156,-26.0481 18.5887,41.511 13.3722,89.9777 20.0583,134.9666 8.4572,-21.2475 5.024,-74.1808 25.3715,-63.7425 25.6899,13.1789 1.0118,109.6208 16.2314,85.0848 59.4506,-95.8418 -4.9044,-209.7541 38.5533,-123.8342 5.0845,-14.9246 -0.1866,-41.5801 15.2535,-44.7737 13.5688,-2.8066 5.3265,112.2264 13.6826,96.7176 14.1915,-26.3388 -1.7232,-62.3654 12.0018,-88.9503 18.0395,-34.9418 -16.6227,181.7442 8.3405,12.139 0,0 -30.3309,418.4373 -30.3309,418.4373 z"
       inkscape:connector-curvature="0" />
    <path
       style="opacity:1;fill:#ed1c63;fill-opacity:1;stroke:none;stroke-width:21.66600037;stroke-miterlimit:4;stroke-dasharray:43.332, 21.66600000000000000;stroke-dashoffset:0;stroke-opacity:1;filter:url(#filter4525)"
       id="path4236"
       d="m 1803.9652,-200.9012 c -0.6878,19.2829 -0.126,38.6511 -2.0633,57.8488 -0.5712,5.6608 -0.4972,13.3163 -5.4082,16.1892 -2.65,1.5502 -17.0111,-21.0432 -19.4003,-17.288 -25.2331,39.6613 5.6808,59.3 -26.8903,29.7453 -5.4815,3.1737 -12.6559,4.4451 -16.4444,9.5212 -7.6596,10.2628 -7.3923,25.7139 -16.5409,34.6748 -4.47,4.3784 -12.6997,1.4261 -18.771,-0.087 -7.0557,-1.7587 -13.1439,-6.2272 -19.6433,-9.488 -6.576,-3.2992 -12.2699,-9.3465 -19.5786,-10.1899 -6.2924,-0.7261 -12.0544,3.8962 -18.0816,5.8443 -5.0068,12.4326 -5.9724,27.4097 -15.0203,37.2978 -3.6375,3.9753 -14.0596,-8.7994 -15.741,-3.6799 -11.2362,34.2112 -5.3189,114.3153 -11.1556,149.0862 -0.6344,3.7793 -6.4323,-5.0549 -7.4613,-8.7463 -4.5245,-16.2307 -5.9002,-33.1785 -8.8504,-49.7678 4.159,-44.8455 6.2334,-89.9335 12.4768,-134.5366 0.5255,-3.7535 3.0061,13.5216 4.9205,10.2505 8.3361,-14.2435 13.329,-62.9217 16.4174,-46.7096 7.1168,37.3581 -6.4371,76.11 -3.5922,114.0334 0.5644,7.5226 8.5409,23.8341 13.509,18.1573 14.4563,-16.5186 16.1331,-40.8302 24.1997,-61.2453 6.5465,-1.5929 14.9694,-9.635 19.6394,-4.7785 7.3786,7.6731 21.6388,69.76 38.3217,76.2164 9.0815,3.5146 16.4304,-19.5075 25.0653,-15.0058 50.1219,26.1307 -5.81,78.5547 49.5856,3.7889 35.7879,-26.6536 29.5677,56.5657 47.8632,44.6694 21.4408,-13.9414 4.4553,-57.0848 24.7756,-72.614 11.4176,-8.7255 13.1578,49.7954 20.9131,37.6978 18.8038,-29.3324 11.0327,-68.9745 20.6123,-102.4738 3.1788,-11.1163 11.5266,-20.0461 17.2899,-30.0692 56.4714,-8.3567 -6.222,-4.1462 29.189,115.1543 3.294,11.0973 -0.2971,-29.4798 10.7204,-33.0314 8.9447,-2.8835 7.5408,17.2751 10.1479,26.3042 17.5329,60.7217 7.5917,94.0373 12.1848,-68.6586 1.3195,-5.3315 2.9756,-10.5908 3.9584,-15.9944 1.0311,-5.6689 1.8622,-11.403 2.072,-17.1611 0.3392,-9.3089 -0.4372,-37.2567 -0.4287,-27.9417 0.031,34.3976 -0.6775,68.8142 0.4974,103.1918 7.8015,228.2602 21.3858,395.4671 6.9226,206.4805 -41.5901,-7.4545 27.5844,3.6668 -2.5289,111.274 -7.6171,27.2191 8.7867,-62.3378 -8.9842,-84.3172 -15.0931,-18.6673 7.9597,94.2949 -0.9661,72.0104 -17.1258,-42.7568 -7.5991,-174.9263 -13.9323,-51.8062 -0.4857,22.1387 20.3516,62.5761 -1.4569,66.4163 -21.3959,3.7675 -6.5371,-42.9554 -9.8057,-64.4332 1.0512,46.2116 35.2083,105.3315 3.1535,138.6346 -29.5638,30.7151 -0.16,-86.8643 -14.2588,-127.0968 -62.3986,-178.0617 37.3374,256.3064 -10.4488,40.8115 -14.7664,-11.8882 -9.9652,-11.9447 -14.6753,22.8279 -3.0924,22.8293 -4.5893,45.8482 -6.5336,68.8038 -2.5453,30.0514 0.7797,119.3663 -6.9348,90.2107 -38.8015,-146.644 14.1923,-237.3883 -26.8957,-160.4998 -3.1051,30.3269 -6.2102,60.6538 -9.3153,90.9807 -4.1723,-12.3581 -3.1596,-46.1609 -12.5171,-37.0742 -14.5914,14.1692 -2.3719,41.6258 -11.0924,60.0006 -2.3199,4.888 -10.1183,-5.548 -12.4282,-10.4407 -25.0123,-52.9789 -5.6969,-110.3565 -23.6129,59.2645 -21.6621,-179.9192 -0.9861,-123.0339 -24.1367,-68.6233 -4.2332,9.9493 -12.4034,11.2298 -21.0524,13.2422 -3.1418,0.731 -6.7947,0.057 -9.5079,1.8019 -3.6878,2.3714 -5.7819,6.5926 -8.6729,9.8888 -2.3192,25.6588 8.8844,97.2934 -6.9576,76.9764 -2.6838,-32.0751 -5.3676,-64.1501 -8.0515,-96.2252 -1.9869,3.7191 -2.3942,13.4069 -5.9607,11.1574 -5.3726,-3.3886 -4.9795,-24.6312 -5.3477,-18.29 -2.6554,45.7202 -1.046,91.5885 -1.5689,137.3828 0,0 -6.8927,-348.3892 -6.8927,-348.3892 l 0,0 c 11.859,-132.8821 -5.4636,-12.0599 9.7943,-55.6087 8.4193,-24.0301 -1.1677,-26.8207 21.3534,-26.6573 44.2572,119.0411 -72.5242,-183.9903 17.7229,-55.9821 21.0305,29.8301 -7.5653,77.7613 11.4906,108.8899 56.1779,91.7686 -21.4469,-151.9426 21.001,-114.5556 15.6779,13.8087 8.2538,40.9607 12.3808,61.441 46.0195,2.901 -50.4845,0.7731 22.788,-70.4292 11.968,-11.6298 7.0741,32.6898 12.4162,48.4995 2.7555,8.1545 8.55,15.0046 11.7429,22.998 4.641,11.6182 5.3534,46.4527 11.6904,35.6655 12.0122,-20.4481 5.8865,-47.0641 8.8297,-70.5962 23.5225,101.1222 0.12,30.7507 19.0134,9.4706 4.605,-5.1867 7.7306,25.3971 9.2627,18.6325 5.7108,-25.2157 0.9332,-51.7921 4.0597,-77.4567 0.8092,-6.6423 12.8504,-8.3182 11.7885,-16.2482 26.0135,146.752 -13.9933,-64.1217 5.185,-98.945 21.1891,-38.4744 -8.6327,93.6602 14.5561,130.9636 19.2407,30.9522 -9.726,-73.9183 -1.108,-109.3299 5.5843,-22.9462 -2.6792,50.5587 10.6698,70.0399 9.4253,13.7551 2.0748,-33.2844 3.1122,-49.9266 1.6305,-7.0522 4.5767,-13.9251 4.8915,-21.1564 1.4537,-33.4019 -27.8473,-118.194 0.3945,-100.2999 138.8043,87.9469 -29.1834,153.2248 16.1831,76.6855 4.506,-7.6022 5.5028,27.4513 11.1786,24.04 68.638,103.1599 11.617,15.0506 27.7385,354.4057 0.9644,20.3004 -4.5851,-79.8961 -9.6191,-60.2062 -7.7091,30.1534 1.3062,62.2399 1.1423,93.3626 -0.1005,19.0693 3.0378,75.5856 -1.9352,57.1759 -8.417,-31.1587 -5.7805,-64.2917 -8.6707,-96.4375 -2.3148,1.7185 -5.8567,7.8257 -6.9443,5.1557 -0.5493,-1.3485 -21.2998,-101.1002 -21.8778,-98.9725 -11.7677,43.3202 -1.6038,90.2766 -10.6279,134.2503 -4.4798,21.8298 -102.734,-115.5637 -33.2572,-57.9951 -38.3724,25.2563 -0.7992,-1.777 -41.4795,36.8765 -7.4462,7.0751 -16.4648,12.3703 -23.8639,19.4946 -9.2121,8.8701 -21.9248,40.5359 -25.8368,28.3607 -45.5538,-141.7729 9.4354,-258.6774 -50.0247,-89.9932 -8.5678,-8.1858 -17.1355,-16.3715 -25.7032,-24.5573 -9.321,8.5382 -16.5538,31.0564 -27.963,25.6147 -16.5327,-7.8854 -6.0296,-56.8487 -22.9829,-49.9136 -169.6367,69.3932 38.5496,73.3451 -55.1154,73.284 -7.7275,0 -15.421,-1.0261 -23.1314,-1.5391 -5.657,-14.3397 -11.8859,-28.4668 -16.9708,-43.0192 -5.0767,-14.5292 1.4135,-40.3161 -13.4901,-44.1572 -13.3094,-3.4301 -11.2713,44.146 -21.6252,35.1071 -14.741,-12.8689 -4.6837,-38.9154 -5.1456,-58.4779 -2.4546,-103.9659 25.0595,-207.9577 -2.0895,-311.9776 2.0186,-3.4106 4.6073,-13.9209 6.0557,-10.2318 8.1037,20.6399 11.1911,86.5105 15.3409,64.7284 9.1313,-47.9302 -7.5259,-98.2022 0.2141,-146.3766 2.1327,-13.2741 5.0904,31.0954 17.4625,36.3566 29.6499,12.6085 9.9247,-157.2127 29.0356,-92.1941 7.0085,10.7278 13.801,42.7668 21.0256,32.1833 16.2884,-23.8614 8.8561,-57.1457 15.2474,-85.3208 4.4086,-19.4347 -0.5799,-48.0952 17.1022,-57.2871 12.7123,-6.60841 7.1476,37.3882 21.4742,37.2335 13.77,-0.1487 11.3384,-25.0994 17.0076,-37.6491 5.8225,0.4574 11.6451,0.9148 17.4677,1.3722 35.9845,33.7732 13.6495,21.137 26.6467,-62.75733 2.6099,-16.84687 -0.6878,-63.84367 9.5837,-50.23759 6.1065,8.08902 8.7062,131.85392 16.95,50.9268 1.64,-16.09889 1.5107,-32.32913 2.266,-48.49369 0,0 11.3681,330.59801 11.3681,330.59801 z"
       inkscape:connector-curvature="0" />
    <path
       style="opacity:1;fill:#ed1c63;fill-opacity:1;stroke:none;stroke-width:21.66600037;stroke-miterlimit:4;stroke-dasharray:43.332, 21.66600000000000000;stroke-dashoffset:0;stroke-opacity:1;filter:url(#filter4537)"
       id="path4238"
       d="m 798.16518,-575.58696 c 1.23334,-6.92651 -1.20616,-15.73702 3.70003,-20.77954 2.76164,-2.83838 5.55168,5.70312 7.79044,8.96977 2.78499,4.06366 27.34826,46.90214 29.69224,45.89458 55.12846,-23.69674 -11.99332,-108.91316 54.6454,13.26077 72.75887,21.07466 35.23052,-110.81593 81.36203,-112.00933 37.58828,-0.97238 15.43404,90.37284 51.71448,100.24971 29.1635,7.93939 29.28,-58.10851 56.7469,-70.7225 19.509,-8.95939 40.988,17.80331 62.3812,16.01369 23.6745,-1.98047 44.0386,-17.83876 66.058,-26.75814 22.7806,-2.455 46.1909,-1.50687 68.3419,-7.365 34.9469,-9.24219 109.5191,-48.3398 138.3414,-68.1154 23.7899,-16.32275 39.2968,-47.46515 67.2936,-54.4342 153.4929,-38.20784 -33.146,134.52066 124.5076,-48.4253 18.1891,1.58011 36.3781,3.16022 54.5672,4.74033 16.4097,-12.39322 28.8121,-34.72649 49.229,-37.17967 16.0619,-1.9299 26.1889,33.43037 40.744,26.36907 22.386,-10.86047 12.833,-63.53649 37.6985,-64.42503 22.164,-0.792 11.4572,43.62868 23.5231,62.23735 3.7966,5.85524 13.505,3.52218 20.2575,5.28327 40.4977,113.9815 20.3342,46.41852 -2.7657,312.40447 -0.8363,9.62914 -9.8868,16.61691 -14.4991,25.11081 -6.5457,12.05437 -5.3594,34.7891 -18.9668,36.51911 -66.6163,8.46944 13.0659,-126.3416 -53.8384,27.93874 -47.0501,-38.82565 -2.5048,226.1755 -49.8197,183.8398 -38.3088,-34.2775 0.019,-184.8111 -37.4366,-149.6031 -416.8886,391.8742 201.6049,182.0041 -41.9498,104.6753 -25.8511,-8.2078 -8.3416,53.6003 -12.5125,80.4004 -4.4987,-0.4853 -12.6279,-5.8969 -13.4962,-1.4561 -5.118,26.1747 -2.2939,53.3228 -1.8594,79.9897 0.4087,25.0843 2.9748,100.1827 4.3869,75.1349 6.1651,-109.3583 10.8219,-218.9188 9.8937,-328.4468 -0.2455,-28.966 -10.147,57.165 -11.9476,86.076 -0.1406,2.2574 4.4438,-0.8454 6.6657,-1.268 -0.6519,52.8999 23.7332,-129.1903 29.0702,-96.1391 7.2344,44.802 -15.0733,93.869 1.4429,136.1392 9.2416,23.6522 8.7653,-93.2227 23.4269,-72.4894 51.537,72.8799 -24.5347,215.2037 46.2263,51.3998 9.4269,19.1682 12.4093,43.2082 28.2806,57.5046 8.8056,7.9318 26.1015,7.1443 35.5539,0 19.0776,-14.4284 24.2781,-74.8168 41.6832,-58.4097 32.1025,30.2618 -11.3454,133.4857 32.4671,128.3083 144.2064,-17.0413 -18.2886,-247.1593 85.1594,-78.775 10.7338,29.5727 21.4675,59.1454 32.2012,88.7181 0,0 -11.9031,177.7109 -11.9031,177.7109 l 0,0 c -11.4737,-15.1968 -22.9474,-30.3937 -34.4211,-45.5905 -74.7426,-136.8893 7.0432,-32.8666 -79.4272,-0.6184 -15.7721,5.8819 -23.7716,-24.1423 -37.688,-33.6127 -11.3006,-7.6904 -27.378,-26.8682 -37.1668,-17.3275 -71.0993,69.2974 -12.3892,153.0402 -69.625,33.5566 -9.0612,-6.2879 -17.8764,-12.9457 -27.1834,-18.8635 -7.5073,-4.7734 -16.4449,-7.399 -23.2086,-13.1779 -7.4148,-6.3352 -10.0101,-27.1361 -18.6247,-22.5642 -23.4436,12.4419 -16.1292,66.486 -40.4916,67.5014 -8.4561,0.3524 -8.0647,-14.8822 -12.097,-22.3233 -1.4788,-17.6405 0.6061,-35.9524 -4.4363,-52.9213 -1.0292,-3.4636 -6.7978,2.4517 -10.1967,3.6776 4.6906,-90.65 9.3812,-181.2999 14.0719,-271.9498 1.1095,-30.205 -7.9285,-61.3122 -0.7511,-90.673 2.3304,-9.5328 20.2483,85.3319 27.7134,9.935 6.8525,7.7702 10.3424,21.5826 20.5575,23.3106 8.9042,1.5062 18.455,-7.7456 21.7492,-16.154 11.4824,-29.30833 8.5804,-63.0805 20.6782,-92.14017 4.5998,-11.04913 15.7166,-20.48123 27.3601,-23.25082 65.0536,-15.474 -1.7476,80.30126 56.9821,-47.95748 44.2087,-64.5205 23.0952,-22.60623 42.7469,-134.14902 7.1678,-11.49109 12.7034,24.27602 21.8837,34.23308 3.2531,3.52831 9.1438,2.91871 13.7156,4.37806 -5.3916,55.88539 -10.7832,111.77078 -16.1748,167.65617 -1.6894,18.40654 3.8988,-36.76164 5.8481,-55.14246 -1.9905,-15.57936 -0.3979,-32.05427 -5.9715,-46.73807 -25.7408,-67.81559 -28.7428,41.98541 -51.4884,27.88017 -27.6145,-17.1246 -15.8928,-65.20587 -36.3552,-90.44677 -12.6755,-15.63559 -88.1676,-13.25187 -100.8398,-13.54785 -19.8141,-0.34982 -40.9502,-8.17437 -59.4423,-1.04946 -15.693,6.04647 -113.2593,93.2846 -131.0367,95.4361 -24.9042,3.01399 -44.3393,-25.07058 -68.8602,-30.36447 -86.3686,-18.64631 -79.4675,11.91223 -137.3662,77.30393 -22.0371,-0.92675 -46.0837,-12.02074 -66.1113,-2.78025 -24.6364,11.36686 -100.5696,110.61711 -118.2999,128.32371 -147.24063,147.0429 30.4319,-29.60069 -94.96337,44.0937 -16.57999,9.744 -24.75583,29.4367 -37.13374,44.155 -10.04666,8.6376 -17.72503,30.5401 -30.13996,25.9127 -16.38198,-6.106 -13.3535,-59.6981 -24.60666,-46.3183 -14.23615,16.9266 7.34231,88.4765 -28.99923,105.8973 -1.24492,0.5967 -11.53647,-1.4393 -13.60895,-1.8172 0,0 -0.64861,-339.85556 -0.64861,-339.85556 z"
       inkscape:connector-curvature="0" />
    <path
       style="opacity:1;fill:#0ab5ae;fill-opacity:1;stroke:none;stroke-width:21.66600037;stroke-miterlimit:4;stroke-dasharray:43.332, 21.66600000000000000;stroke-dashoffset:0;stroke-opacity:1;filter:url(#filter4561)"
       id="path4230"
       d="m 443.5421,-1373.1108 c 1.95645,-7.1653 2.49814,-14.8774 5.86936,-21.4959 0.68579,-1.3463 3.94357,0.3419 4.14284,1.8397 1.77674,13.3549 -8.70745,31.5694 1.47551,40.3909 7.74037,6.7054 8.68992,-18.5471 13.03488,-27.8206 -0.6348,38.9553 -12.62466,79.4093 -1.9044,116.8659 4.67717,16.342 14.80986,-30.6009 22.21479,-45.9014 3.34281,26.175 -0.21491,54.2067 10.02842,78.525 2.99761,7.1165 20.84555,-7.0885 23.16458,0.2772 11.09711,35.2463 -20.75848,92.4597 11.6324,110.244 26.649,14.6317 21.58858,-107.3923 38.97894,-82.4557 28.80595,41.3057 2.37472,100.8644 8.69986,150.8237 3.04369,24.0407 12.84667,46.7315 19.27,70.09727 10.1119,-5.58646 27.71625,-28.01097 30.3357,-16.75938 11.78339,50.61434 -6.51458,104.63364 2.05496,155.89008 1.30197,7.78739 15.50755,-2.97827 23.26133,-4.4674 2.79752,21.27635 6.71954,42.43488 8.39254,63.82904 1.88838,24.14843 -7.10471,50.29984 2.27848,72.63072 4.1905,9.9729 10.99821,-18.63103 16.49732,-27.94654 -53.25388,107.64383 6.84041,225.58939 -10.75914,336.38651 -0.7711,4.8544 -7.87503,5.8841 -11.81255,8.8262 -5.022,-7.4406 -13.83551,-31.2139 -15.066,-22.3218 -33.20969,239.9891 20.85083,61.8828 -7.01021,149.042 -1.40494,14.6301 -2.80987,29.2601 -4.2148,43.8902 -2.67345,-4.491 -4.10988,-16.9406 -8.02034,-13.4729 -5.95058,5.2767 -0.72977,16.1278 -3.41562,23.6138 -1.16469,3.2462 -4.56693,8.7133 -7.5824,7.0396 -10.57572,-5.87 -19.66681,-15.1051 -25.76676,-25.5498 -4.36234,-7.4695 -2.74548,-17.0809 -4.11821,-25.6213 -9.82945,46.3557 -20.47521,185.5886 -29.48835,139.0672 -10.51853,-54.2914 18.9084,-109.0595 24.64579,-164.0621 -3.61574,10.5932 -7.23148,21.1864 -10.84722,31.7796 -1.76369,0.3368 -5.37577,2.804 -5.29107,1.0105 16.19755,-342.97376 -43.73288,-251.8297 28.66761,-357.39731 0.64567,-12.93587 -0.72508,-90.83774 14.18835,-113.19344 3.04262,-4.56099 14.35975,3.69761 16.38883,-1.39582 8.84431,-22.20113 -6.83815,-56.32349 12.30428,-70.63011 59.89387,-44.76331 -13.10772,165.09507 35.97722,-2.81244 3.0451,-22.69575 -11.85526,-77.23967 9.13529,-68.08726 24.6663,10.75513 2.39067,102.24179 16.12347,79.10072 17.48856,-29.46987 -1.94138,-68.5162 -2.06868,-102.78436 -0.004,-1.00067 1.84487,3.46656 1.69607,2.47701 -2.83037,-18.82247 -8.92052,-75.27245 -9.78322,-56.25793 -6.75995,148.99385 -5.30787,298.24701 -7.96181,447.37052 -123.51143,-115.09437 40.19506,-55.97063 43.45685,-88.74739 9.74776,-97.95247 8.02042,-196.71658 13.50787,-294.99981 0.33921,-6.07549 0.62152,-12.73185 3.95782,-17.82064 1.24066,-1.89235 5.14791,0.0207 6.54525,1.80052 4.59688,5.85503 6.92586,13.17889 10.3888,19.76834 52.13655,-69.75894 -8.0992,-0.78702 27.50239,105.63186 4.32354,12.92374 11.33497,-31.75864 24.94816,-32.38877 11.8769,-0.54976 12.06667,20.5073 18.70982,30.36791 26.12588,38.77937 9.34052,4.51728 27.49453,48.06113 82.77741,-86.2053 27.87192,-33.76539 -14.65061,303.11037 -1.85056,14.6607 -7.27064,31.307 -19.27801,39.92 -7.16457,5.1392 -19.54445,-1.2523 -25.21016,-8.0082 -12.79842,-15.2611 -6.52491,-53.68424 -26.44198,-53.58287 -19.89999,0.10128 -17.18533,35.89907 -25.77799,53.84867 -8.69965,33.1987 -28.04247,-87.9653 -44.90027,-67.01669 -18.71924,23.26176 -4.60068,65.53929 -26.84396,85.45809 -12.36081,11.069 0.66839,-46.7824 -15.91981,-47.1634 -43.59454,-1.0012 -16.24232,230.373 -28.19403,-62.651 -1.96796,-287.83934 11.7658,-75.13936 -42.53087,16.55121 -10.04573,16.9642 -14.74379,-36.99768 -17.37527,-56.53677 -6.35094,-47.15667 4.96721,-97.08135 -9.42188,-142.43596 -3.51953,-11.09361 -19.00723,20.62414 -30.21691,17.4939 -13.06826,-3.64923 -16.15955,-21.80032 -24.23933,-32.70048 -72.8053,117.91854 -4.51457,30.31717 -40.019,-94.58641 -4.15709,-14.62453 -13.44886,28.91663 -26.02793,37.45626 -5.01605,3.40528 -15.17279,-3.05771 -15.75224,-9.09268 -3.27049,-34.06242 27.50347,-76.72498 5.03447,-102.53368 -18.77863,-21.56982 -14.75618,55.26149 -22.13427,82.89223 8.19601,-114.7085 16.39203,-229.41701 24.58804,-344.12552 5.13663,-0.2689 10.93113,1.7228 15.40988,-0.8067 7.01628,-3.9625 14.75696,-9.5884 16.79841,-17.3834 8.43039,-32.1903 0.39271,-68.37 13.65261,-98.8899 3.70768,-8.5339 12.80343,20.4394 21.66456,17.6014 11.25763,-3.6054 12.18217,-20.2615 18.27325,-30.3922 36.09352,-25.7174 -1.93527,-6.6614 31.17517,8e-4 4.25999,0.8571 8.40426,-9.9487 11.21927,-6.6384 7.25619,8.5328 -0.73903,33.7048 10.32779,31.9764 14.5572,-2.2734 15.81627,-24.863 23.7244,-37.2945 -6.5009,101.5449 -13.0018,203.0898 -19.50271,304.63476 0.0435,38.44582 35.88897,101.21636 0.13037,115.33747 -34.13132,13.47849 -8.24289,-73.09928 -16.61445,-108.82789 -0.95104,-4.05889 -9.84348,-10.93976 -10.48307,-6.8203 -5.24999,33.81411 22.16205,124.15958 -4.38215,102.56415 -29.71838,-24.17783 -14.07514,-302.46789 -22.83577,2.39036 -22.2016,-14.09972 -14.98834,49.77444 -20.06238,36.76747 -58.46488,-149.87091 24.74586,-147.79487 -17.30038,44.30359 -5.85254,26.73878 -10.9747,-53.6322 -16.46205,-80.44831 -0.26585,34.04744 -0.5317,68.09488 -0.79755,102.14232 -30.3584,48.61561 25.43741,-32.54567 -20.3044,-13.30622 -10.66958,4.48773 -5.91114,22.61325 -6.08909,34.18685 -0.65486,42.59049 12.86025,86.15926 3.5994,127.73589 -5.43598,24.40483 8.53465,-67.25207 -15.71474,-73.34409 -22.38141,-5.62275 -0.44787,46.1516 -0.6718,69.2274 -8.20475,5.7122 -15.1535,-28.62582 -14.78638,-20.27042 2.02957,46.19177 8.49724,184.14627 12.83514,138.11389 8.96348,-95.11756 -1.96457,-191.12665 1.15894,-286.61454 0.1326,-4.05367 7.46212,-12.62543 8.50128,-8.70498 4.14042,15.62066 1.35353,32.2918 2.0303,48.4377 1.94047,12.753 10.11666,82.20307 21.18265,93.45076 6.18212,6.28363 20.15604,-11.31372 26.01816,-4.73056 14.09462,15.82826 14.66151,39.7808 22.66757,59.40464 17.91629,43.91504 36.74929,83.42493 56.63268,126.53131 13.97254,-11.99937 27.47265,-47.42436 41.91764,-35.99811 25.37597,20.07286 10.05079,66.61076 29.48508,92.47896 7.55409,10.055 25.25113,-0.7799 37.59398,-3.1925 12.25817,-2.396 24.28731,-6.2423 35.77357,-11.1484 11.23651,-4.7994 22.15003,-24.9959 32.03556,-17.8147 15.66427,11.3791 12.66607,36.5922 18.9991,54.8882 5.79984,2.544 13.99089,12.9696 17.39951,7.6319 12.96435,-20.3015 7.63816,-49.386 21.73662,-68.9169 6.06509,-8.40214 6.61717,20.1611 5.99133,30.5047 -5.67114,93.7305 -13.97438,187.3366 -24.8153,280.6106 -5.65142,48.6242 -4.85065,41.9686 -32.35802,63.243 -4.18079,-12.5233 0.62908,-38.4775 -12.54238,-37.5698 -14.49548,0.9989 -18.13729,54.2073 -18.04779,39.6778 6.66745,-119.0035 13.3349,-238.007 20.00236,-357.0104 5.65495,6.4204 13.90703,27.2519 16.96484,19.2613 33.34428,-87.13492 -18.99724,-124.60899 39.37661,-66.64678 80.48853,95.36378 0.73475,19.65704 51.54588,-145.12697 3.55175,-11.51854 25.64447,14.21682 35.43888,7.19106 16.78196,-12.0381 23.92121,-34.45843 30.06304,-54.17715 38.84387,-124.71053 -19.63528,-109.89029 49.46819,-117.10089 6.40363,-9.8295 17.79259,-17.84316 19.2109,-29.4885 5.78213,-47.4756 -0.69771,-95.70895 1.85366,-143.46726 0.3501,-6.55338 6.81992,-25.04007 6.79783,-18.47739 -0.24006,71.33385 -0.79484,142.85022 -7.4554,213.87284 -1.91691,20.4403 -11.35767,78.24716 -18.12204,58.86356 -10.25367,-29.38236 4.10297,-62.10481 6.15445,-93.15721 -4.39571,5.98223 -10.85383,24.99404 -13.18714,17.9467 -1.12669,-3.40298 -1.89326,-103.41493 -2.19374,-113.18435 -2.65885,-86.44654 -16.88647,-173.19656 -8.8619,-259.31086 1.78012,-19.1031 13.21585,38.3053 28.35849,50.0865 6.11351,4.7564 12.80445,-8.7201 19.20667,-13.0801 99.66169,-58.3807 -137.48375,69.9566 49.64089,75.2465 31.8341,0.8999 5.9105,-86.5204 37.7327,-87.7737 30.309,-1.1936 15.014,60.1997 32.4655,85.0091 7.412,10.537 24.2821,8.6165 36.4232,12.9247 10.3142,31.48252 20.6284,62.96504 30.9426,94.44756 44.6507,-27.8035 25.0462,-111.95846 67.9387,-142.38226 9.0412,-6.4131 9.2953,22.412 19.3731,27.0281 16.2783,7.4563 34.2803,-57.2813 34.0387,-45.6309 -2.3435,112.98844 -16.2536,225.44032 -24.3804,338.16049 -31.7165,35.52967 -5.906,20.23852 -39.4895,-6.92176 -6.5845,-5.32511 -20.05,-16.26858 -23.8656,-8.70864 -17.2239,34.12572 0.6222,85.76686 -27.8824,111.23679 -17.0946,15.27467 -16.5529,-42.75701 -24.8319,-64.13454 -7.5238,-19.42736 -15.0509,-38.85343 -22.5763,-58.28014 -7.6745,13.1877 -15.349,26.37541 -23.0235,39.56311 -5.6719,-13.93513 -8.0713,-53.90319 -17.0157,-41.8054 -139.88639,189.20444 38.3757,87.59801 -32.0048,52.71116 -48.0027,-23.79444 10.0616,73.03395 -23.4339,10.64665 -18.6826,-136.69178 -6.6137,-32.51783 15.3192,-350.77082 2.0053,-29.0981 -2.2557,-59.8809 8.1765,-87.1185 3.611,-9.4281 11.8145,16.6989 15.1442,26.23 41.0988,117.64173 -7.4181,13.9251 28.3503,86.5956 5.0463,0.2641 10.0926,0.5281 15.139,0.7921 5.9167,-12.2682 4.3431,-34.4028 17.7501,-36.8046 11.3283,-2.0293 5.491,25.1815 15.5087,30.8466 6.2488,3.5337 12.9015,-6.8104 17.9226,-11.941 7.5144,-7.6783 10.0139,-20.2641 19.1412,-25.9311 4.9061,-3.0462 11.3097,2.3423 16.9645,3.5135 14.2439,318.20422 -10.8749,52.5641 28.4547,44.444 24.0488,-4.9653 -15.7954,82.03606 7.1615,73.31934 27.5003,-10.44185 -5.7398,-83.82804 23.652,-85.01924 27.9753,-1.1339 -1.7862,56.52352 4.1089,83.89411 0.9951,4.61991 9.4334,0.58757 14.1501,0.88135 -22.2994,40.4082 23.3436,22.01479 28.7387,36.54147 8.729,23.50342 -8.1721,61.18279 13.3647,74.01925 16.2546,9.68819 15.0628,-37.0179 30.6049,-47.81224 8.4565,-5.87318 26.4797,-4.07879 30.405,5.4395 16.8559,40.87357 17.0104,86.77402 25.5156,130.16104 12.4526,13.20675 22.6049,50.19569 37.3577,39.62026 30.7529,-22.04498 19.1937,-79.69211 49.7241,-102.04417 14.7096,-10.76923 26.8087,25.05399 42.2928,34.67643 13.5491,8.41993 30.6863,10.06994 43.9567,18.92249 15.6377,10.43173 23.568,32.66489 41.5562,38.12219 13.8468,4.20088 27.6236,-8.62934 41.4354,-12.94401 12.4564,-12.31823 23.2274,-26.61517 37.3694,-36.9547 8.5652,-6.26221 19.1593,-14.28769 29.5066,-11.93986 35.4997,8.05502 29.7681,110.91005 31.6534,106.83564 19.8101,-42.81374 11.0853,-93.70488 15.5175,-140.67096 0.9249,-9.80072 0.3628,-19.68518 0.5442,-29.52777 -37.8518,119.63593 -58.6138,158.68903 -24.8018,323.51742 13.1643,64.17402 7.7213,-130.79476 10.9868,-196.22366 13.1758,-264.00329 -9.7371,-14.52126 22.3698,2.81767 27.0933,14.6314 9.3285,-60.87261 13.9927,-91.30892 6.6379,-14.84032 9.3125,-32.19585 19.9139,-44.52097 6.1333,-7.13059 43.6469,-7.62725 50.2325,-7.88701 9.2464,-0.36472 24.7149,-9.40448 27.7529,-0.66377 49.8858,143.52991 7.7467,304.59267 54.1834,-22.3455 12.9825,8.88828 29.7719,16.11024 32.8162,34.37916 2.2041,13.22655 -1.4328,26.78051 -1.9547,40.17929 -3.6802,94.47946 1.6586,189.70695 -10.6516,283.45326 -2.3568,17.94795 -1.9707,-52.7293 -19.9366,-50.51416 -21.3453,2.63179 -20.4579,37.83723 -30.6868,56.75584 -91.9203,-167.95076 15.4591,-17.29618 -78.6723,-68.5877 -28.4118,-15.48141 -45.9317,-86.81884 -86.6577,-22.5837 -19.8776,31.35211 -3.7025,90.63754 -38.0763,104.65603 -25.4774,10.3903 -19.7854,-51.34941 -29.6781,-77.02412 -7.0103,36.50805 -9.7225,74.11082 -21.0309,109.52413 -1.9507,6.10902 -8.5544,-10.88741 -8.4189,-17.2989 2.3017,-108.9009 2.966,-218.21881 15.6833,-326.39909 3.2917,-28.00175 24.1142,81.07522 46.7372,64.42992 23.0294,-16.94423 24.3205,-51.75276 36.4807,-77.62913 11.3911,22.81373 28.5557,103.67077 80.9441,91.50669 17.5604,-4.07735 25.6607,-27.29807 42.6963,-33.19573 12.5448,-4.34298 30.109,14.06225 39.5447,4.72411 19.9247,-19.71858 7.845,-65.99998 33.5865,-77.09907 17.7682,-7.6612 20.0503,33.09974 30.0754,49.64961 2.7415,-26.8198 27.7716,-48.03302 31.677,-74.83898 2.8335,-19.44921 2.6257,-78.54182 0.9926,-58.95525 -5.6015,67.1806 -6.6094,134.70991 -12.9053,201.829 -1.312,13.98749 5.1567,-30.05259 -2.078,-42.09543 -3.4213,-5.69495 -10.9695,7.49796 -16.4542,11.24694 -1.8219,-35.08231 -3.6437,-70.16461 -5.4655,-105.24691 0,0 27.0889,-212.24919 27.0889,-212.24919 l 0,0 c 4.2528,26.138 8.5056,52.276 12.7584,78.41403 7.7357,-7.89903 16.7642,-14.71243 23.2071,-23.69713 9.346,-13.0331 23.6663,-57.8631 23.7793,-41.8259 0.9733,138.07401 -14.1053,275.79438 -21.158,413.69155 -5.3696,-13.32028 -4.5878,-31.38576 -16.1087,-39.96084 -19.9343,-14.8373 -37.7651,104.65249 -40.1665,62.80403 -13.1737,-3.12351 -54.6999,-15.35871 -68.0323,-8.09678 -17.2607,9.4016 -28.7733,27.03545 -40.7415,42.62662 -16.3237,21.26525 -17.388,62.71564 -43.7712,67.4697 -22.015,3.96693 -20.1668,-51.01276 -42.5179,-51.92105 -21.2143,-0.8621 -27.5142,32.34404 -41.2713,48.51606 -92.5102,16.70611 29.0118,6.51579 -64.6237,-44.30524 -9.44,-5.1236 -14.8663,15.50653 -22.2994,23.2598 -3.2258,-86.76001 -6.4516,-173.52002 -9.6774,-260.28004 0.1157,-15.62722 5.1194,-59.39727 11.9406,-45.33687 16.6488,34.3179 13.7771,75.03191 20.6657,112.54787 71.5452,-154.81978 -12.1094,-19.2355 67.7937,9.26026 20.3038,7.24093 26.9842,-33.8745 43.0032,-48.29912 5.5832,-5.02759 66.0663,-56.33053 86.9428,-32.1799 21.6296,25.02188 24.3275,61.51354 36.4913,92.27031 10.7928,-59.46185 18.0848,-119.66683 32.3785,-178.38554 4.0235,-16.52856 20.6179,-62.87349 22.2279,-45.93862 13.1145,137.94187 8.6042,276.99416 12.9063,415.49125 -2.4673,-17.21034 -2.7127,-34.88898 -7.4018,-51.63103 -1.8833,-6.72428 -4.907,-17.16785 -11.8896,-17.24828 -8.8077,-0.10145 -13.5555,11.25141 -20.3333,16.87712 -8.5267,3.73079 -16.6042,13.65363 -25.58,11.19238 -11.9646,-3.28082 -18.3283,-34.47895 -27.0052,-25.61177 -19.6665,20.09783 -13.0702,55.35105 -26.35,80.13699 -4.5928,8.57214 -17.4417,9.00361 -24.8101,15.35037 -32.5122,28.00424 -7.2119,27.77692 -39.954,20.93047 -4.3321,1.8816 -8.2863,5.99567 -12.9963,5.6448 -3.5835,-0.26695 -7.894,-10.80138 -8.0144,-7.20997 -0.7864,23.46483 4.6371,93.62997 5.9038,70.18617 6.8941,-127.58922 21.5236,-255.82604 11.0076,-383.16787 -9.4156,-114.01736 -1.1146,229.27761 -14.3315,342.91707 -1.1873,10.20831 -15.4588,-13.54623 -23.1883,-20.31935 -2.4397,8.62564 -3.3996,17.81518 -7.3191,25.87691 -2.0186,4.15193 -8.3297,13.96103 -9.9472,9.63705 -8.0424,-21.49831 8.6249,-57.41305 -11.8249,-67.83714 -16.3551,-8.33686 -14.5777,64.87225 -24.4071,49.36823 -118.4153,-186.77727 43.4675,-88.01902 -57.3151,-142.26244 -46.736,31.35987 -33.6621,38.56053 -85.9365,15.28722 -15.5731,-6.93336 -27.1671,-25.4643 -44.2122,-25.70254 -17.6158,-0.24623 -30.9235,16.93569 -46.8677,24.42949 -51.4653,24.18871 -34.1765,18.97103 -86.3505,18.17493 -9.8604,-32.33443 -14.7853,-66.6088 -29.5812,-97.00328 -30.7762,-63.22217 -40.6594,-3.55427 -62.776,17.4463 -6.3012,5.98321 -16.623,5.45673 -24.1714,9.76088 -7.7922,4.4432 -14.9207,22.40425 -21.4482,16.25183 -11.4847,-10.82467 -6.8874,-30.80332 -10.3312,-46.20498 -4.5028,-2.60622 -8.5431,-9.37194 -13.5085,-7.81865 -6.8906,2.1555 -11.0346,22.99374 -14.0883,16.45153 -8.2926,-17.7657 0.2074,-39.81653 -5.5639,-58.55362 -3.2128,-10.43033 -33.829,15.96701 -39.5398,1.38753 -23.0786,-65.49496 0.3288,-20.80147 -29.7613,20.40451 -3.3401,4.57404 -12.069,-5.0115 -13.3332,-10.5324 -6.6362,-28.98302 9.9605,-66.12813 -9.3889,-88.70369 -45.0512,-52.56269 10.7757,192.2547 -25.4771,7.63225 -3.4744,16.48865 -1.235,35.34066 -10.4232,49.46597 -4.1857,6.43492 -5.9363,-14.24326 -7.6159,-21.73376 -3.0434,-13.57201 -3.0497,-27.74344 -6.5,-41.21774 -0.6256,-2.4429 -1.4674,4.82525 -2.201,7.23788 7.5045,-91.26945 15.009,-182.53889 22.5135,-273.80832 0.4043,-28.0537 -13.1647,54.547 -19.7471,81.82055 1.4128,-14.16634 0.2944,-28.81965 4.2384,-42.49905 1.8915,-6.5606 0.1441,26.90037 2.1414,20.3712 6.8656,-22.443 -10.4159,-65.836 12.8064,-69.2345 21.9834,-3.2172 0.421,45.5744 9.0934,66.0295 2.28,5.3778 13.3483,-0.2027 16.8253,-4.8961 10.1592,-13.7133 14.1968,-31.0403 21.2953,-46.5605 6.7905,24.8917 2.0098,56.549 20.3716,74.67498 9.2432,9.12443 15.6359,-20.88558 24.9956,-29.89048 7.0933,-6.8244 16.8595,-10.4356 23.9815,-17.23 7.9649,-7.5985 11.6333,-31.5349 20.8897,-25.5772 14.2989,9.2032 4.6993,35.2684 15.0859,48.7323 4.9275,6.3874 2.7393,-15.9003 4.109,-23.8504 -5.5673,118.66829 -14.1166,237.23418 -16.7018,356.00486 -0.099,4.54868 8.8144,-5.57182 9.173,-10.10743 3.7467,-47.40038 10.8581,-95.7379 2.8988,-142.61523 -2.281,-13.43466 -7.5913,33.89796 -21.1761,34.96872 -13.2179,1.04183 -16.3024,-20.91479 -24.4535,-31.37218 -10.7891,4.30711 -21.5781,8.61421 -32.3671,12.92132 -94.2299,-231.72666 62.5608,109.88731 -77.3281,102.91184 -61.9851,-3.09085 -10.9594,-124.28816 -27.1903,-184.19033 -4.0054,-14.78236 -20.3831,-22.94303 -31.723,-33.23708 -8.5511,-7.76244 -21.4607,-30.43618 -27.7471,-20.74816 -19.42738,29.93946 -17.44052,69.21705 -26.16075,103.82558 -22.0119,11.65828 -9.81996,9.45901 -8.43849,-20.17465 4.07162,-87.33902 5.40853,-174.79176 9.52876,-262.12846 1.12715,-23.8924 -21.35016,59.9492 -0.54761,71.7548 35.71499,20.2684 9.62298,-202.5733 25.65989,13.142 2.6555,14.2653 -5.6343,47.85219 7.9665,42.79584 18.3047,-6.80504 23.2587,-73.62104 22.4631,-54.10854 -3.8209,93.70968 -22.3907,186.24741 -31.6563,279.57614 -1.5521,15.6334 -2.4874,127.19231 -14.10462,143.2231 -6.31796,8.71822 -16.42638,-13.92372 -24.63957,-20.88558 -7.08916,27.71696 -8.72278,57.43869 -21.26747,83.15089 -14.72714,30.18547 -83.22158,19.54165 -59.90335,81.01882 -11.77094,33.52601 -12.96693,70.48623 -27.05373,103.10693 -5.62304,13.0212 -20.23345,19.882 -30.35018,29.823 -8.072,20.5437 -16.14401,41.0873 -24.21601,61.631 -4.21188,45.2442 4.93865,93.8288 -12.63564,135.7324 -7.26551,17.3237 -9.73892,-37.9575 -22.64666,-51.6062 -4.53563,-4.796 -10.32617,23.694 -9.9845,17.1018 4.06681,-78.4642 15.64235,-156.3794 21.26508,-234.7475 0.22484,-3.1337 -3.3306,5.3282 -4.9959,7.9923 -4.32983,36.0689 -8.65967,72.1378 -12.9895,108.2067 0.16071,-18.8546 2.31415,-37.7978 0.48214,-56.5639 -0.75437,-7.7274 -7.89895,-29.5861 -8.13476,-21.8256 -2.72479,89.6722 1.59249,179.4319 0.61983,269.1402 -0.10631,9.8051 -2.5715,38.8848 -3.85416,29.1634 -2.68164,-20.3245 8.67655,-79.8761 -0.41244,-61.5005 -18.20722,36.8105 -18.97213,79.9132 -28.4582,119.8697 -2.65134,-26.3981 -9.30868,-157.8048 -33.40542,-190.7734 -6.86041,-9.3863 -23.3023,-0.457 -34.87157,0.6915 -12.84956,1.2757 -25.46108,4.3238 -38.1786,6.5606 -13.34376,2.3469 -31.99478,18.1177 -40.00468,7.1904 -20.74024,-28.2943 -19.26973,-67.4654 -28.90459,-101.1981 -11.41054,-10.4449 -22.82108,-20.8898 -34.23162,-31.3347 -12.25969,4.3854 -25.86129,20.2507 -36.77909,13.1561 -16.57838,-10.7729 -13.19386,-38.057 -25.43421,-53.5835 -5.99132,-7.5998 -23.34069,-2.9452 -26.37476,-12.1347 -29.73489,-90.06046 21.88574,-118.02306 -29.23616,-81.74286 -31.66914,-24.72196 -9.0307,-1.74206 -8.80921,-81.04389 0.22948,-82.16019 -2.36871,-164.30908 -2.42859,-246.46958 -0.007,-9.46115 -7.12621,-26.8794 2.22832,-28.29586 32.24341,-4.88232 -4.61337,50.14361 16.02253,15.83365 1.14223,-15.98279 2.70973,-31.94087 3.42671,-47.94838 1.05931,-23.65063 -5.78201,-48.60457 1.90089,-70.99759 3.44516,-10.04146 11.061,39.87049 12.39216,29.33825 4.90807,-38.83321 -10.45322,-79.37252 -1.25967,-117.41964 6.0953,-25.2252 6.86837,70.23834 27.15188,72.96528 1.20174,-265.73678 -10.28329,-87.81368 15.79314,-61.43618 7.11377,7.1959 7.18767,-19.037 8.99235,-28.9934 3.61203,-19.9276 -2.77078,-42.7001 7.19807,-60.3289 4.45072,-7.8707 9.1114,15.6207 13.6671,23.431 2.92078,-16.6381 5.84156,-33.2762 8.76235,-49.9143 37.39761,-131.6868 -37.11444,110.0497 26.3229,41.7356 1.69009,-1.82 0.0848,-110.203 11.53829,-137.6805 1.30143,-3.1222 11.78856,12.3836 10.06143,-1.3202 -3.38658,104.136 -13.16438,208.2603 -10.15975,312.4081 0.20202,7.0025 12.60529,-6.11636 18.90794,-9.17455 0.62381,-3.76196 2.14763,-15.08922 1.87141,-11.2859 -1.51764,20.89683 12.41002,51.89725 -5.59853,62.60579 -46.83116,27.84748 18.06891,-139.34734 -24.95753,-14.05953 -5.98982,-13.55145 -12.34781,-26.94609 -17.96946,-40.65437 -7.0678,-17.23467 -7.33213,-38.57259 -20.08783,-52.14755 -4.8185,-5.12799 -13.92346,6.8412 -16.24126,13.48515 -6.93142,19.86882 10.19055,67.51134 -10.19723,62.30046 -61.92429,-15.8271 32.04649,-207.9134 5.77439,-191.6578 -3.93269,26.0998 -19.6575,120.07949 -13.61509,137.26792 5.05024,14.36611 15.7831,-55.63372 20.09223,-41.02819 11.16555,37.84491 -10.9804,81.33823 2.71793,118.34178 6.1155,16.5199 39.39904,-92.18972 51.71456,-10.87944 5.6632,30.2202 10.07538,60.70186 16.98959,90.6606 5.40599,23.42374 -2.19588,59.91125 19.93019,69.30985 17.55958,7.45888 13.72606,-45.79402 32.77067,-46.92383 15.98097,-0.94807 14.95519,28.5148 19.67413,43.81257 6.56388,21.27864 -2.47927,50.33611 13.99106,65.32254 9.65858,8.78839 15.16279,-21.26465 22.74419,-31.89698 5.28465,-0.56028 13.54609,3.10615 15.85396,-1.68083 11.04135,-22.90193 9.88833,-96.65174 20.39066,-73.49767 16.81425,37.06972 -1.61432,81.53003 1.65609,122.10327 1.51167,18.75406 4.70589,72.08481 12.62061,55.01563 41.39221,-89.26802 5.62789,-242.13308 39.97701,-19.84203 7.24358,-30.78704 14.48715,-61.57408 21.73072,-92.36113 6.94745,-1.22256 16.27723,1.71016 20.84237,-3.6677 9.32506,-10.98519 8.88945,-27.67358 16.26862,-40.05014 1.82617,-3.0629 9.98978,-7.49241 9.95127,-3.92663 -3.63097,336.19271 -42.43504,484.77541 7.53817,258.52232 -5.3551,-49.20802 2.90827,-27.74587 -22.3464,2.92495 -5.98625,7.27006 -16.88296,25.79112 -21.91499,17.83073 -13.58449,-21.48994 6.99577,-60.87892 -14.18553,-74.9398 -91.11237,-60.48354 21.16138,142.57031 -41.88045,16.31647 -27.2498,-53.70741 2.06091,-13.49612 -30.80965,7.40863 -5.31911,3.3828 -8.52202,-10.58504 -8.50875,-16.8887 0.25097,-119.21187 6.19796,-238.34369 9.29694,-357.51554 7.23576,10.56303 14.24673,42.09456 21.70728,31.68908 21.79267,-30.39495 21.70465,-71.58214 32.55698,-107.37321 -5.26516,132.8667 -10.53032,265.73341 -15.79548,398.60011 -2.99843,-9.2273 -5.21481,-21.72341 -12.64052,-29.34579 -2.33758,-2.3995 -5.97792,-7.63486 -8.47471,-5.4015 -14.68267,13.13357 -6.78142,43.00586 -21.71682,54.96383 -4.25835,18.34155 -8.51671,36.68309 -12.77506,55.02463 -5.73772,-0.49602 -14.95867,-6.78755 -17.21316,-1.48805 -8.84521,20.79195 -4.48128,45.20488 -10.63378,66.9463 -1.8251,6.44947 -6.30384,13.63115 -12.71852,15.57495 -4.7534,1.4404 -11.80569,-12.78698 -12.63979,-7.89066 -4.65655,27.33476 -0.12459,55.45706 -0.18688,83.18556 -5.7491,-31.0917 -18.30549,-61.6741 -17.24729,-93.27516 1.81941,-54.3328 15.84587,-107.59101 25.76342,-161.04198 0.35367,-1.90615 2.60376,3.00582 3.21821,4.84456 1.12721,3.37321 2.29384,6.96196 1.90864,10.49761 -3.3594,30.83568 -12.54378,61.11587 -13.08935,92.1292 -0.35551,20.20951 8.34162,-39.55528 12.51242,-59.33292 -6.79823,19.33161 -30.59227,87.64598 -32.87199,88.01269 -19.74302,3.17584 -9.69906,-40.05219 -5.95085,-59.69459 3.15437,-16.53037 1.4655,65.45688 7.82448,49.87591 13.16564,-32.25887 -16.26306,-125.82303 11.9207,-21.39325 1.05654,-22.20092 -7.53433,-47.12398 3.16961,-66.60276 5.96706,-10.85871 9.77297,22.7719 14.65946,34.15784 1.09492,-27.04717 2.18983,-54.09435 3.28475,-81.14153 0.83999,-6.4385 8.15126,-10.64771 9.51854,-16.99519 3.34536,-15.53047 4.74273,-63.34193 4.36545,-47.45972 -1.1047,46.50459 -4.3663,92.93291 -6.54945,139.39936 2.49793,-32.10815 8.28256,-64.12895 7.49379,-96.32446 -0.19361,-7.90294 -8.48102,-13.6508 -10.37612,-21.32559 -4.4874,-18.17304 -6.27387,-36.92062 -8.59294,-55.49528 -3.43763,-27.53377 2.08668,-57.21283 -8.67215,-82.78963 -3.26632,-7.76498 -16.77459,1.571 -25.16189,2.35649 -6.37499,-17.49044 -12.74999,-34.98089 -19.12498,-52.47134 -6.78308,-19.28568 -14.17813,-38.36692 -20.34925,-57.85704 -7.07665,-22.35007 -1.36781,-52.59967 -19.37681,-67.60901 -10.28859,-8.57488 -26.06877,38.27459 -30.83728,25.7588 -15.39827,-40.41549 16.0831,-93.99431 -8.67216,-129.45831 -17.28009,-24.7552 -10.86255,94.18974 -52.22028,73.99883 -4.67006,-6.83913 -9.03749,-13.89493 -14.01018,-20.51723 -3.57553,-4.7617 -9.90818,-7.8769 -11.59842,-13.5866 -3.8812,-13.1109 -4.19634,-27.103 -4.49358,-40.7731 -0.50211,-23.0916 20.77267,-82.8554 2.101,-69.2595 -20.29059,14.7746 -12.36506,119.4065 -15.95454,62.2219 0,0 38.99583,-296.9175 38.99583,-296.9175 z"
       inkscape:connector-curvature="0" />
    <path
       style="opacity:1;fill:#0ab5ae;fill-opacity:1;stroke:none;stroke-width:21.66600037;stroke-miterlimit:4;stroke-dasharray:43.332, 21.66600000000000000;stroke-dashoffset:0;stroke-opacity:1;filter:url(#filter4549)"
       id="path4232"
       d="m 1836.7936,-602.06009 c -9.4883,-12.83941 11.5471,16.45906 -7.8614,-31.5194 -0.677,-1.67355 -3.2618,1.54808 -4.8928,2.32212 -1.9493,3.76193 -4.5578,15.3216 -5.8478,11.28579 -29.5521,-92.45335 -15.5439,-205.92092 -19.8742,86.45708 -64.764,-181.61858 20.9416,24.01281 -43.9854,63.48262 -30.5749,18.58676 -6.1671,-86.7545 -39.4773,-99.8205 -24.4603,-9.59461 -18.6039,50.15821 -35.1999,70.5282 -10.3298,12.67896 -29.1536,15.09819 -42.3889,24.70493 -15.8931,11.53589 -29.7543,25.63884 -44.6314,38.45827 -15.4434,10.86078 -34.7973,17.63408 -46.3302,32.58228 -19.0651,24.7108 -27.9684,55.821 -42.9848,83.1817 -88.6539,161.5331 3.2532,0.8708 -80.6571,110.2748 -69.0944,90.0865 0.7671,25.9161 -60.6773,77.8552 -6.6689,15.6068 -12.8933,31.411 -20.0067,46.8202 -4.4758,9.6956 -4.2423,26.4767 -14.7382,28.4451 -8.8089,1.6519 -12.5469,-31.9815 -13.7573,-23.1012 -5.1621,37.8725 3.2588,76.4897 1.2774,114.661 -0.127,2.4465 -5.461,2.6416 -7.281,1.0016 -4.0812,-3.6773 -5.1663,-9.6966 -7.7495,-14.5449 -18.7752,138.0824 6.6653,3.2053 -24.6261,-11.5491 -16.5032,-7.7815 -9.5813,35.4057 -17.3516,51.9142 -0.9136,1.941 -5.6273,-1.1147 -5.55,-3.2586 3.6377,-100.8588 7.3237,-201.8194 16.5711,-302.3192 0.738,-8.0204 6.1271,14.8978 9.1906,22.3467 -7.6793,-421.31137 -28.6021,-28.0471 37.8358,-121.2908 10.4734,-14.6991 7.301,-54.7505 24.208,-48.4332 75.5913,28.2446 2.5049,226.1474 65.6889,-53.31824 10.7903,-15.07093 56.9874,-82.10712 72.9495,-94.80474 10.2133,-8.12454 23.5578,-14.60242 36.591,-13.92732 12.8543,0.66584 29.2643,29.41903 34.3689,17.60297 18.608,-43.07362 11.2362,-93.18291 18.3199,-139.56628 3.8739,-25.36603 9.6932,-50.39656 14.5397,-75.59485 26.6407,128.03759 16.9918,-46.42916 15.1374,-34.12441 -10.1499,67.34681 -9.3288,135.95015 -17.3323,203.58561 -1.2713,10.74319 -1.4015,-21.61251 -2.9339,-32.32156 -6.2302,-43.53734 -3.3365,-31.73227 -20.9377,-65.75022 -33.1663,58.05397 -8.5432,19.67579 -43.0812,64.71432 -7.2323,9.43116 -17.2805,40.03662 -21.062,28.76925 -13.5598,-40.40319 1.8959,-87.00118 -12.0026,-127.28914 -4.2687,-12.37408 -12.3514,23.21769 -20.3163,33.60519 -4.9208,6.41751 -11.9726,10.87441 -17.9589,16.31162 -13.4467,17.54582 -20.6718,-85.72397 -31.6513,-64.45502 -15.5167,30.05844 -6.3909,68.07238 -17.8507,99.8993 -2.0518,5.69847 -12.2569,1.45211 -18.1693,0.13808 -7.8888,-1.75331 -16.4643,-3.72959 -22.4449,-9.16467 -10.8234,-9.8363 -17.5275,-23.41765 -26.2913,-35.12647 -10.9739,21.75606 -9.6835,57.93744 -32.9217,65.26819 -18.3949,5.80288 -22.0481,-33.8243 -39.2797,-42.49144 -35.3023,-17.75638 -65.1269,15.80764 -97.4598,16.39402 -19.1814,0.34786 -36.8266,-10.96985 -55.646,-14.69428 -19.3183,-3.82312 -39.0317,-5.26992 -58.5475,-7.90489 -39.5796,23.4142 -80.03101,-26.21539 -118.0753,-14.96384 -23.33487,6.90126 -34.45146,36.07648 -56.65064,46.04343 -15.30357,6.87098 -35.84708,-6.56828 -50.28723,1.96937 -19.81536,11.7157 -21.55942,46.93956 -43.61044,53.54701 -14.24845,4.26946 -21.52225,-20.53726 -32.28337,-30.8059 -81.84819,97.47623 64.18681,-84.58229 -42.70044,99.85853 -4.7766,8.24233 -27.64072,17.83839 -27.34226,8.3167 113.01657,-1268.53262 -5.53559,-414.62439 65.55261,-341.30588 19.08135,19.68001 15.75927,-52.5095 23.6389,-78.76425 44.51023,80.75761 9.30192,51.95799 57.3539,5.57006 7.8016,-7.53143 19.43038,-9.92029 29.84159,-12.95248 9.29599,-2.70739 22.06333,2.88556 28.75398,-4.11305 46.31431,-48.44606 3.34854,-73.92306 49.0502,-32.65737 6.44459,6.25467 15.50573,10.63999 19.33378,18.764 8.21571,17.43565 7.50386,38.211 15.72701,55.64313 1.64948,3.4967 10.60798,5.71496 11.43555,1.93835 5.69619,-25.99435 2.06769,-53.26051 5.59078,-79.63741 0.6343,-4.74888 2.11586,9.34559 3.17379,14.01838 -1.0426,-21.55647 -2.0852,-43.11295 -3.1278,-64.6694 11.55434,13.4814 -2.35003,40.4736 9.54014,54.62612 2.64164,3.14427 5.13611,-6.91771 5.53915,-11.00455 2.37429,-24.07582 -6.56649,-50.17947 2.69857,-72.52767 5.24103,-12.6417 7.31183,26.3754 10.96773,39.56318 2.3394,-11.58098 4.6787,-23.16198 7.018,-34.74298 3.551,10.1867 5.1154,39.81846 10.6529,30.5602 9.5611,-15.9854 -1.1971,-37.9375 4.3877,-55.707 1.8461,-5.8738 5.0609,22.1912 7.8683,16.7114 5.3602,-10.4627 1.6321,-23.4745 1.6192,-35.2304 -0.048,-43.7791 -5.2582,-63.0868 -12.2542,-111.9732 -2.1125,145.6947 -6.1812,291.37407 -6.3377,437.08393 -0.013,12.10782 4.5929,-23.80367 5.9066,-35.84001 0.2186,-2.0029 -1.3818,-3.87672 -1.3517,-5.89129 0.3198,-21.40012 10.252,-84.07234 2.3988,-64.16269 -20.4373,51.81318 -14.6717,192.6477 -16.1219,12.98181 -3.0571,3.78069 -4.5829,9.73365 -9.1712,11.34208 -3.05649,1.07147 -6.79078,-2.33219 -8.16712,-5.26409 -3.69592,-7.87311 -0.84081,-18.49579 -6.2017,-25.34463 -2.20692,-2.81946 -7.1336,3.15337 -8.61796,6.41167 -21.46104,47.10874 2.56036,39.31556 -24.06774,44.44858 6.93962,-112.83384 12.40676,-225.76786 20.81886,-338.50146 0.59108,-7.9213 2.88903,-15.7809 6.15766,-23.0205 1.54954,-3.432 6.82882,-11.7013 7.8874,-8.0875 7.46893,25.4971 1.15539,102.5589 12.7893,78.6729 50.2288,-103.126 -35.63416,-130.9636 16.6735,-111.4937 21.0971,-28.8775 6.2252,-18.1218 26.0871,19.7311 3.663,6.9808 10.5804,25.588 14.4523,18.7209 11.8905,-21.0885 2.9416,-50.0899 15.0539,-71.0518 3.9216,-6.7869 12.3984,10.2322 16.095,17.1443 7.2314,13.5217 10.7442,28.7242 16.1162,43.0863 0,0 -2.4795,287.51096 -2.4795,287.51096 l 0,0 c -4.9322,-3.57447 -9.1393,-8.4652 -14.7965,-10.72341 -4.4545,-1.77815 -10.5497,1.99828 -14.3597,-0.91512 -6.5462,-5.00558 -5.9868,-17.73128 -13.7263,-20.56115 -5.211,-1.90533 -11.5645,5.498 -12.5253,10.96254 -6.4814,36.86223 1.7924,76.1016 -9.08,111.91534 -4.6093,15.18325 -7.2151,-30.90388 -10.8226,-46.35583 -3.4288,-15.58396 -2.082,-60.43781 -10.2865,-46.7519 -12.28,20.4845 -2.2051,47.73756 -4.5527,71.50526 -0.5343,5.41018 -3.2818,10.41447 -4.0698,15.79357 -0.9251,6.31586 -0.1047,25.43495 -1.0445,19.12126 -2.2299,-14.98014 -2.9181,-30.20047 -2.8592,-45.34557 0.3703,-95.19374 2.7641,-190.36885 4.1462,-285.55325 -1.52,0.1731 -4.4588,2.0458 -4.56,0.5193 -0.7565,-11.3994 2.8393,-45.6075 2.3254,-34.1945 -8.5275,189.39947 -8.25645,63.8806 6.7603,24.0899 2.1862,-5.7929 12.0178,51.5006 18.5559,0.846 2.1692,-1.1661 20.9476,-15.5458 21.6963,1.6972 1.8779,43.2457 -30.3047,94.9186 -4.6404,129.7764 21.2158,28.81588 12.2967,-70.7112 22.9841,-104.8616 0.9705,-3.1012 8.1301,2.0753 8.1661,5.3247 1.2897,116.52757 -2.8253,233.05231 -4.2379,349.57848 -2.702,-8.3958 -5.408,-16.79032 -8.106,-25.18741 -2.7486,-8.5546 -4.6922,-17.40975 -8.2338,-25.66767 -1.9098,-4.45296 -5.7447,-16.44355 -7.9837,-12.14673 -5.9438,11.40641 -3.5879,25.47389 -5.5822,38.18047 -11.1582,71.09527 -2.8054,6.832 -12.6603,91.69712 -2.5934,3.87822 -5.247,7.71677 -7.78,11.63467 -2.2888,3.54024 -5.1629,14.66865 -6.6835,10.73679 -6.4368,-16.64277 3.5415,-40.53659 -9.537,-52.67609 -10.47324,-9.72133 -0.1197,28.59643 -1.0424,42.85625 -0.4168,6.44085 -0.787,25.20838 -2.9689,19.13403 -5.79933,-16.14553 -5.598,-33.85121 -8.39702,-50.77682 0.33376,53.34209 27.93052,206.07305 1.00127,160.02626 -31.13329,-53.23542 -6.1817,-123.38218 -15.24581,-184.38328 -1.1379,-7.65802 -1.91782,18.22593 -8.96803,21.4251 -5.20551,2.3621 -8.39473,-7.76119 -12.59209,-11.64178 -5.17288,43.80744 -10.34577,87.61488 -15.51865,131.42231 -8.78442,18.22778 -13.49109,-38.15313 -20.23663,-57.22969 -7.81954,-15.7173 -7.92041,-38.98228 -23.45862,-47.1519 -9.95282,-5.23295 -16.16175,16.436 -26.48564,20.89242 -8.87298,3.83012 -19.65533,-0.0224 -28.83856,2.98887 -10.74586,3.52372 -20.96484,9.1636 -29.7893,16.236 -32.48702,26.03688 -36.02675,43.98482 -55.85579,81.95131 -7.54511,-19.09945 -2.14276,-55.96713 -22.63533,-57.29834 -18.81103,-1.22197 -8.8736,36.64219 -13.3104,54.96329 6.14034,-104.82964 12.28069,-209.65927 18.42103,-314.48891 -0.36805,-19.61993 -18.60218,35.00903 -23.30639,54.06021 -1.07395,4.34932 3.65988,8.56959 7.14709,11.38194 5.91324,4.76887 13.43687,7.09115 20.15531,10.63673 9.75256,35.55948 -0.89089,85.44986 29.25768,106.67843 19.20363,13.52189 22.1663,-45.28347 43.25662,-55.6188 15.19715,-7.44738 33.5954,15.00766 49.77087,10.03059 22.53489,-6.93381 33.26143,-38.1301 56.39256,-42.69625 40.53174,-8.00108 76.51673,49.05933 117.26533,40.12987 19.8752,-21.42519 35.0242,-48.50119 59.6256,-64.27556 15.8606,-10.1697 37.0127,-7.18944 55.6903,-9.66458 28.8085,-3.81768 72.0296,-0.0814 96.4893,-22.82604 17.539,-16.30925 22.1469,-43.3807 39.1514,-60.2465 7.8478,-7.78378 21.0864,-6.6381 31.6296,-9.95716 35.6083,94.42422 17.0183,88.4104 48.1688,0.0604 6.0334,-17.11219 10.8587,-34.90214 19.7169,-50.73762 4.4063,-7.87692 14.8631,-26.86238 19.2926,-18.99852 14.0235,24.89613 -9.6488,93.46347 17.298,83.95863 31.5139,-11.11577 14.6515,-65.20802 21.9773,-97.81202 6.454,10.78221 15.2311,20.47876 19.3619,32.34665 8.3707,24.04927 3.9223,52.92288 17.7581,74.30055 4.627,7.14906 19.2834,-4.20625 22.5062,-12.08859 15.5043,-37.92059 1.5586,-90.48501 31.0562,-118.91471 0.6638,-0.6397 34.0136,134.1409 34.7844,137.23809 9.5937,-19.60843 13.3969,-43.33806 28.7812,-58.82528 5.2483,-5.28349 17.1449,2.71051 20.2255,9.49063 7.5369,16.58757 8.9747,35.76004 8.6118,53.97597 -2.0118,100.97871 -10.477,201.72561 -15.7155,302.58842 -3.701,-7.44339 -9.9189,-30.55812 -11.103,-22.33016 -6.1638,42.82766 -2.903,86.48915 -4.3545,129.73373 -7.7517,-3.19292 -16.1428,-5.14045 -23.2551,-9.57878 -10.8246,-6.75494 -17.8356,-27.3382 -30.0635,-23.69389 -16.6015,4.94781 -25.3184,25.41602 -30.8249,41.84068 -14.9195,44.50111 -4.8451,97.69141 -29.3709,137.70921 -8.1777,13.3433 -27.2787,-15.3475 -40.918,-23.0213 -10.8194,33.1007 -21.6388,66.2015 -32.4582,99.3023 -43.4707,41.853 -32.9515,24.7306 -61.6494,86.7762 -8.1794,17.6841 -3.2722,58.7552 -22.1867,54.078 -22.9276,-5.6696 -13.3126,-85.9641 -25.8722,-65.9621 -28.4485,45.306 9.2819,110.4671 -7.5963,160.3119 2.1352,28.9018 5.5649,115.6738 6.4056,86.7054 2.9479,-101.5826 -1.5886,-203.2621 -0.074,-304.8762 0.1536,-10.3116 7.4472,-40.5549 5.0727,-30.5193 -5.6276,23.7846 6.7068,83.341 -14.8415,71.8062 -16.4438,-8.8024 -13.7492,-220.8689 -12.3304,-0.1562 9.8383,38.6889 1.768,18.7864 9.6482,-5.0933 1.4268,-4.3238 5.1149,-14.1991 8.2436,-10.8913 9.0264,9.5435 11.1584,48.5039 15.6593,36.1631 109.9251,-301.39731 -48.0925,-0.6266 31.7308,-146.3463 9.5643,-8.8139 17.5914,-19.6654 28.6928,-26.4417 50.8681,-31.0501 25.7965,11.0297 75.6551,-41.8095 16.4784,-17.4635 23.952,-42.83161 42.3335,-58.27937 106.7677,-89.72751 -16.3792,137.98297 89.0769,-120.85072 14.6525,-16.35705 28.2317,-33.74309 43.9574,-49.07117 12.8898,-12.56394 33.1698,-18.49311 41.6492,-34.37083 17.3067,-32.40717 8.4496,-77.76199 32.8852,-105.19641 10.0701,-11.30584 22.1048,38.14544 34.5353,29.50191 6.2144,-4.32116 34.1331,-116.98526 36.9968,-128.09172 5.5593,12.97483 3.3965,34.14362 16.6779,38.92449 9.7651,3.51511 7.1451,-19.84123 7.5234,-30.21281 1.326,-36.35424 -2.9272,-72.73274 -2.4419,-109.10792 0.028,-2.07609 3.6267,-6.85569 3.9616,-4.80661 5.1835,31.70605 3.2374,64.56382 10.908,95.76163 5.2698,21.43344 -2.4127,-44.07759 -3.6191,-66.11639 0,0 28.1578,331.83863 28.1578,331.83863 z"
       inkscape:connector-curvature="0" />
    <flowRoot
       xml:space="preserve"
       id="flowRoot4136"
       style="font-style:normal;font-weight:normal;font-size:40px;line-height:125%;font-family:sans-serif;letter-spacing:0px;word-spacing:0px;fill:#000000;fill-opacity:1;stroke:none;stroke-width:1px;stroke-linecap:butt;stroke-linejoin:miter;stroke-opacity:1"
       transform="matrix(2.2541353,0.27481028,-0.27481028,2.2541353,-94.40721,-2006.5245)"><flowRegion
         id="flowRegion4138"><rect
           id="rect4140"
           width="945.50281"
           height="359.61432"
           x="472.7514"
           y="302.42606" /></flowRegion><flowPara
         id="flowPara4142"
         style="font-style:normal;font-variant:normal;font-weight:normal;font-stretch:normal;font-size:180px;font-family:'Broken 15';-inkscape-font-specification:'Broken 15, '">New</flowPara></flowRoot>    <flowRoot
       transform="matrix(2.7539567,-0.68679139,0.68679139,2.7539567,-840.76267,-732.584)"
       xml:space="preserve"
       id="flowRoot4136-9"
       style="font-style:normal;font-weight:normal;font-size:40px;line-height:125%;font-family:sans-serif;letter-spacing:0px;word-spacing:0px;fill:#000000;fill-opacity:1;stroke:none;stroke-width:1px;stroke-linecap:butt;stroke-linejoin:miter;stroke-opacity:1"><flowRegion
         id="flowRegion4138-4"><rect
           id="rect4140-3"
           width="945.50281"
           height="359.61432"
           x="472.7514"
           y="302.42606" /></flowRegion><flowPara
         id="flowPara4142-4"
         style="font-style:normal;font-variant:normal;font-weight:normal;font-stretch:normal;font-size:180px;font-family:'Broken 15';-inkscape-font-specification:'Broken 15, '">Fall</flowPara></flowRoot>    <flowRoot
       xml:space="preserve"
       id="flowRoot4136-7"
       style="font-style:normal;font-weight:normal;font-size:62.02255249px;line-height:125%;font-family:sans-serif;letter-spacing:0px;word-spacing:0px;fill:#000000;fill-opacity:1;stroke:none;stroke-width:1px;stroke-linecap:butt;stroke-linejoin:miter;stroke-opacity:1"
       transform="matrix(0.93187724,-0.41840245,0.41840245,0.93187724,1921.5795,639.48939)"><flowRegion
         id="flowRegion4138-5"><rect
           id="rect4140-1"
           width="1466.0624"
           height="557.60492"
           x="16.897873"
           y="-1500.1625" /></flowRegion><flowPara
         id="flowPara4142-5"
         style="font-style:normal;font-variant:normal;font-weight:normal;font-stretch:normal;font-size:279.10147095px;font-family:'Horse Puke';-inkscape-font-specification:'Horse Puke'">Album</flowPara></flowRoot>    <flowRoot
       xml:space="preserve"
       id="flowRoot4136-9-7"
       style="font-style:normal;font-weight:normal;font-size:74.37882233px;line-height:125%;font-family:sans-serif;letter-spacing:0px;word-spacing:0px;fill:#000000;fill-opacity:1;stroke:none;stroke-width:1px;stroke-linecap:butt;stroke-linejoin:miter;stroke-opacity:1"
       transform="matrix(1.2025052,0.16094418,-0.16094418,1.2025052,1059.0657,125.86625)"><flowRegion
         id="flowRegion4138-4-9"><rect
           id="rect4140-3-2"
           width="1758.1345"
           height="668.6922"
           x="-2.6159019"
           y="-74.288116" /></flowRegion><flowPara
         id="flowPara4142-4-0"
         style="font-style:normal;font-variant:normal;font-weight:normal;font-stretch:normal;font-size:334.7046814px;font-family:'Broken 15';-inkscape-font-specification:'Broken 15, '">2016</flowPara></flowRoot>    <path
       style="opacity:1;fill:#ed1c63;fill-opacity:1;stroke:none;stroke-width:21.66600037;stroke-miterlimit:4;stroke-dasharray:43.332, 21.66600000000000000;stroke-dashoffset:0;stroke-opacity:1;filter:url(#filter4573)"
       id="path4234"
       d="m 992.61308,-905.21294 c 29.04002,-175.57746 -14.92152,75.11445 3.19163,93.65679 32.85189,33.63027 8.98259,-94.19891 22.45369,-139.24075 3.0363,-10.15194 5.0735,20.83097 10.1843,30.11324 37.621,68.32781 -6.7299,-111.26654 26.9833,86.31401 21.89,4.22234 24.366,30.5496 40.7897,40.34861 7.1032,4.23808 18.8277,-4.44395 24.7804,1.29908 23.003,22.19263 14.85,55.91422 43.6457,74.10402 7.2169,4.55879 17.0659,-0.46858 25.5988,-0.70287 7.7081,4.37904 19.5627,5.01893 23.1244,13.13714 2.3974,5.46431 12.0879,93.32304 31.2429,108.83712 5.3791,4.35672 12.7644,-6.98026 19.6779,-6.63518 18.5643,0.9266 20.8585,21.57338 25.9236,33.82151 5.3316,-10.17885 5.34,-26.23438 15.9949,-30.53656 6.9343,-2.79989 5.6364,14.07853 6.323,21.52514 1.483,16.08239 0.7235,32.31198 0.1298,48.45168 -0.8276,22.49797 -21.8803,81.57327 -4.3912,67.39667 18.1439,-14.70742 19.37,-135.531 16.856,-45.25186 30.9389,-144.53614 3.9881,-27.94279 1.1117,37.45333 -0.8457,19.22856 7.5232,-37.75206 11.3412,-56.61673 1.8474,-9.12772 6.6135,-36.62339 5.6549,-27.36008 -2.01,19.42289 -16.9762,121.29885 -9.8894,72.94332 3.8603,-55.81962 -17.2371,104.95621 -3.6648,-33.22863 1.1135,-11.33774 -2.0652,23.02687 0.2772,34.17574 1.0729,5.10647 2.472,-10.13895 3.7079,-15.20843 1.3764,10.87309 2.7529,21.74618 4.1293,32.61926 0,0 -3.6221,232.18917 -3.6221,232.18917 l 0,0 c -10.941,55.3438 -5.1732,20.8196 -13.3647,104.1541 -0.373,2.0217 -5.9387,1.0862 -6.0916,-0.9639 -2.5685,-34.448 19.6361,-76.455 -1.7062,-103.6169 -23.6228,-30.0641 -8.958,168.6116 -16.2786,45.5313 -4.8726,24.4435 -15.9856,112.26 -15.6725,48.9251 0.058,-11.7293 11.5527,-28.7224 1.7381,-35.1453 -8.9082,-5.8296 -7.5353,41.451 -8.3258,30.8343 -2.9261,-39.3002 14.1176,-78.3481 10.8044,-117.732 9.5716,-144.096 5.6696,-17.6613 -5.5812,-24.2019 -8.6817,-5.0471 4.9317,-38.2545 -0.9452,-30.1116 -10.5276,14.587 -9.8873,34.5933 -14.7825,51.9038 -24.9763,88.3211 -16.3528,74.4026 -9.1515,-54.3174 -4.119,-0.1297 -8.8434,-2.5427 -12.357,-0.3893 -7.2358,4.4348 -15.7861,26.948 -17.3737,18.6111 -7.625,-40.0414 6.6964,-82.5186 -2.3638,-122.2597 -1.9786,-8.67876 -14.363,19.4324 -22.0874,15.0087 -24.8012,-14.2036 -10.8545,-64.06674 -37.1834,-77.25911 -62.2682,14.92311 17.0124,4.87109 -44.6587,-49.93899 -7.6658,-6.81302 -16.5947,13.51976 -26.6953,15.29709 -8.0163,1.41054 -17.2033,-1.35911 -23.5492,-6.456 -26.6826,-21.4307 -28.0137,-63.77398 -34.486,-91.99893 -5.2115,-9.98617 -13.2181,-18.95649 -15.6343,-29.95852 -5.6943,-25.92801 2.313,-103.51518 -8.3387,-79.2 -21.87623,49.93814 -13.54145,108.53643 -27.58942,161.21509 -3.08161,11.55575 0.4748,-25.30296 -5.96767,-35.37898 -2.83648,-4.43624 -5.27388,9.11535 -7.91083,13.67303 0.64263,-20.73383 1.28525,-41.46765 1.92788,-62.20148 0,0 22.07012,-257.62834 22.07012,-257.62834 z"
       inkscape:connector-curvature="0" />
  </g>
</svg>
